<svg width="54" height="54" viewBox="0 0 54 54" fill="none" xmlns="http://www.w3.org/2000/svg">
<circle cx="27" cy="27" r="27" fill="white"/>
<path d="M38.5216 30.1451L38.9085 30.4604L40.2489 31.567C40.4583 31.7275 40.6246 31.9224 40.737 32.1392C40.8141 32.2916 40.8569 32.4543 40.8635 32.6194C40.8678 32.743 40.8329 32.8654 40.7623 32.9744C40.7166 33.0465 40.6605 33.1138 40.5954 33.1749L39.9986 33.6676C39.835 33.8257 39.606 33.9277 39.3562 33.9537C39.1563 33.9641 38.9564 33.9333 38.7745 33.8639C38.6054 33.7991 38.4493 33.7131 38.3117 33.6092C38.2181 33.5397 38.1262 33.4687 38.036 33.3962L36.1443 31.803C36.1 31.7621 36.0462 31.7291 35.986 31.7058C35.9259 31.6826 35.8607 31.6696 35.7943 31.6676C35.728 31.6657 35.6618 31.6748 35.5998 31.6945C35.5379 31.7141 35.4813 31.744 35.4336 31.7821L35.3502 31.8615C35.2939 31.9072 35.2491 31.9616 35.2183 32.0217C35.1876 32.0817 35.1715 32.1462 35.171 32.2114C35.1706 32.2766 35.1857 32.3412 35.2156 32.4016C35.2454 32.4619 35.2895 32.5168 35.3451 32.5631L37.596 34.3818C37.78 34.5222 37.9301 34.6901 38.0386 34.8766C38.1254 35.018 38.1738 35.1734 38.1802 35.3319C38.1837 35.4554 38.1488 35.5776 38.079 35.6868C38.017 35.7796 37.9405 35.8653 37.8514 35.9416L37.0977 36.5638C36.9392 36.7131 36.7262 36.8157 36.4908 36.8562C36.3055 36.8784 36.1163 36.8604 35.942 36.804C35.7708 36.7486 35.6138 36.6671 35.4792 36.5638C35.3672 36.4788 35.2576 36.3918 35.1504 36.3028L32.8135 34.3379C32.7737 34.3017 32.7254 34.2726 32.6715 34.2524C32.6176 34.2321 32.5593 34.2212 32.5001 34.2202C32.4409 34.2192 32.3821 34.2283 32.3273 34.2467C32.2725 34.2651 32.2228 34.2926 32.1813 34.3275L31.9638 34.5091C31.8764 34.5839 31.828 34.6839 31.8289 34.7877C31.8299 34.8916 31.8801 34.991 31.9688 35.0646L34.1236 36.806C34.3288 36.9658 34.5014 37.152 34.6345 37.3573C34.7261 37.4991 34.7779 37.6561 34.7862 37.8167C34.7908 37.9416 34.7559 38.0654 34.685 38.1758C34.6221 38.2674 34.5447 38.3517 34.4549 38.4264L33.858 38.9213C33.2915 39.3361 32.6424 39.2407 31.9107 38.6352L29.675 36.8311C29.6184 36.7839 29.5415 36.7569 29.4611 36.7562C29.3806 36.7554 29.303 36.7808 29.245 36.8269L28.9517 37.0232C28.9073 37.0585 28.8722 37.101 28.8485 37.148C28.8248 37.195 28.8131 37.2456 28.814 37.2965C28.815 37.3474 28.8286 37.3976 28.854 37.4439C28.8794 37.4903 28.9161 37.5319 28.9618 37.5661L30.4286 38.7876C30.6341 38.9383 30.784 39.1337 30.8611 39.3514C30.9079 39.5068 30.9105 39.669 30.8687 39.8254C30.8253 39.9843 30.7339 40.1315 30.6031 40.2535L30.0063 40.7463C29.8329 40.8928 29.6011 40.9825 29.3538 40.9989C29.1587 41.0056 28.9639 40.9815 28.7797 40.9279C28.5655 40.8588 28.3721 40.7519 28.2132 40.6147L16.0864 30.6044C15.4904 30.1195 14.9612 29.5817 14.5083 29.0008C14.1223 28.5083 13.8082 27.9798 13.5725 27.4264C13.3724 26.9487 13.2466 26.4519 13.1982 25.948C13.1526 25.5047 13.1893 25.0583 13.307 24.6242L11.1699 22.8597L9 21.1726L17.5532 14L22.0297 17.769L19.9609 19.475L19.9154 19.5167L19.885 19.5439C19.4717 19.9191 19.1611 20.3635 18.9746 20.8468C18.7911 21.3249 18.7409 21.831 18.8279 22.3273C18.9552 23.0332 19.3647 23.6836 19.9913 24.1752L20.6033 24.6785L20.6589 24.7223L20.6969 24.7515C21.1678 25.0988 21.7353 25.3447 22.349 25.4674C22.9627 25.5902 23.6035 25.586 24.2148 25.4552C24.945 25.2939 25.6068 24.9687 26.1267 24.5156L28.9239 22.2041L29.9152 23.0268L29.9254 23.0414L38.5165 30.1367L38.5216 30.1451ZM41.9105 24.7787C41.9328 25.0219 41.9328 25.2662 41.9105 25.5095C41.8622 26.0062 41.7381 26.4959 41.5413 26.967C41.3124 27.5078 41.0068 28.0244 40.6308 28.5059C40.5416 28.622 40.4489 28.7362 40.3526 28.8484L40.211 28.7356L29.7736 20.1056C29.6622 20.0132 29.5299 19.94 29.3842 19.8899C29.2385 19.8398 29.0822 19.8139 28.9244 19.8137C28.7666 19.8136 28.6102 19.839 28.4643 19.8888C28.3184 19.9385 28.1858 20.0114 28.0741 20.1035L24.4297 23.1145C24.215 23.3118 23.9384 23.4563 23.6306 23.5321C23.4051 23.5826 23.1681 23.587 22.9401 23.5446L22.9275 23.5425C22.6871 23.4952 22.4652 23.3982 22.2826 23.2606L21.6908 22.7741C21.44 22.5861 21.2711 22.3351 21.2103 22.06C21.1713 21.8569 21.1886 21.6492 21.2608 21.4524L21.2684 21.4378C21.3529 21.2252 21.4918 21.03 21.6756 20.8656L21.6832 20.8594L25.7802 17.4767C26.2109 17.1219 26.7258 16.8446 27.2926 16.6623C27.8677 16.4771 28.4697 16.355 29.0832 16.299C29.4997 16.26 29.9185 16.2405 30.3376 16.2405C30.5502 16.2406 30.7627 16.2455 30.9749 16.2551C32.1014 16.3061 33.2216 16.4276 34.3259 16.6185L37.4847 14.0125L46 21.0431L41.9788 24.3611C41.9209 24.4948 41.8984 24.6372 41.9131 24.7787H41.9105Z" fill="#143458"/>
</svg>
