<svg width="17" height="17" viewBox="0 0 17 17" fill="none" xmlns="http://www.w3.org/2000/svg">
<path d="M0.356664 0.356664C0.469436 0.243606 0.603404 0.153907 0.750896 0.0927047C0.898388 0.0315023 1.05651 0 1.21619 0C1.37588 0 1.53399 0.0315023 1.68149 0.0927047C1.82898 0.153907 1.96295 0.243606 2.07572 0.356664L8.50032 6.78369L14.9249 0.356664C15.0378 0.243789 15.1718 0.154252 15.3193 0.0931643C15.4668 0.032077 15.6248 0.000635622 15.7844 0.000635622C15.9441 0.000635622 16.1021 0.032077 16.2496 0.0931643C16.3971 0.154252 16.5311 0.243789 16.644 0.356664C16.7568 0.469538 16.8464 0.60354 16.9075 0.751018C16.9686 0.898496 17 1.05656 17 1.21619C17 1.37582 16.9686 1.53389 16.9075 1.68136C16.8464 1.82884 16.7568 1.96284 16.644 2.07572L10.2169 8.50032L16.644 14.9249C16.7568 15.0378 16.8464 15.1718 16.9075 15.3193C16.9686 15.4668 17 15.6248 17 15.7844C17 15.9441 16.9686 16.1021 16.9075 16.2496C16.8464 16.3971 16.7568 16.5311 16.644 16.644C16.5311 16.7568 16.3971 16.8464 16.2496 16.9075C16.1021 16.9686 15.9441 17 15.7844 17C15.6248 17 15.4668 16.9686 15.3193 16.9075C15.1718 16.8464 15.0378 16.7568 14.9249 16.644L8.50032 10.2169L2.07572 16.644C1.96284 16.7568 1.82884 16.8464 1.68136 16.9075C1.53389 16.9686 1.37582 17 1.21619 17C1.05656 17 0.898496 16.9686 0.751018 16.9075C0.60354 16.8464 0.469538 16.7568 0.356664 16.644C0.243789 16.5311 0.154252 16.3971 0.0931643 16.2496C0.032077 16.1021 0.000635622 15.9441 0.000635622 15.7844C0.000635622 15.6248 0.032077 15.4668 0.0931643 15.3193C0.154252 15.1718 0.243789 15.0378 0.356664 14.9249L6.78369 8.50032L0.356664 2.07572C0.243606 1.96295 0.153907 1.82898 0.0927047 1.68149C0.0315023 1.53399 0 1.37588 0 1.21619C0 1.05651 0.0315023 0.898388 0.0927047 0.750896C0.153907 0.603404 0.243606 0.469436 0.356664 0.356664Z" fill="#143458"/>
</svg>
