<svg width="54" height="54" viewBox="0 0 54 54" fill="none" xmlns="http://www.w3.org/2000/svg">
<circle cx="27" cy="27" r="27" fill="black"/>
<path d="M16 23.3027C15.9999 21.4363 16.4621 19.599 17.3451 17.9547C18.2282 16.3105 19.5047 14.9105 21.0606 13.8798C22.6166 12.8491 24.4036 12.2198 26.262 12.048C28.1204 11.8762 29.9925 12.1673 31.711 12.8953C33.4296 13.6233 34.941 14.7656 36.1105 16.2201C37.28 17.6746 38.0711 19.3961 38.4132 21.2309C38.7553 23.0656 38.6376 24.9565 38.0708 26.7347C37.504 28.513 36.5057 30.1231 35.165 31.4215C34.7826 31.7907 34.4887 32.175 34.3116 32.5875L32.8762 35.9198C32.8034 36.0887 32.6827 36.2326 32.5291 36.3337C32.3754 36.4348 32.1955 36.4887 32.0116 36.4887H22.593C22.4088 36.489 22.2285 36.4353 22.0745 36.3342C21.9205 36.2331 21.7995 36.089 21.7265 35.9198L20.293 32.5856C20.0878 32.1453 19.7978 31.7498 19.4397 31.4215C18.3502 30.3688 17.4841 29.1073 16.8931 27.7124C16.3021 26.3174 15.9983 24.8177 16 23.3027ZM21.6512 39.3143C21.6512 39.0645 21.7504 38.8249 21.927 38.6483C22.1037 38.4717 22.3432 38.3724 22.593 38.3724H32.0116C32.2614 38.3724 32.501 38.4717 32.6776 38.6483C32.8543 38.8249 32.9535 39.0645 32.9535 39.3143C32.9535 39.5641 32.8543 39.8037 32.6776 39.9803C32.501 40.1569 32.2614 40.2562 32.0116 40.2562L31.5897 41.0982C31.4333 41.411 31.193 41.6742 30.8956 41.8582C30.5981 42.0421 30.2554 42.1397 29.9056 42.1399H24.699C24.3493 42.1397 24.0065 42.0421 23.7091 41.8582C23.4116 41.6742 23.1713 41.411 23.015 41.0982L22.593 40.2562C22.3432 40.2562 22.1037 40.1569 21.927 39.9803C21.7504 39.8037 21.6512 39.5641 21.6512 39.3143Z" fill="white"/>
</svg>
