<svg width="46" height="45" viewBox="0 0 46 45" fill="none" xmlns="http://www.w3.org/2000/svg">
<path d="M33.2911 25.4795L30.3437 27.6633L29.2597 31.1077L35.1037 31.0282C39.953 30.9728 41.8983 24.7918 37.9548 21.9691L33.2097 18.557L32.1257 22.0014L33.2911 25.4795Z" fill="#143458"/>
<path d="M30.2494 16.4068L33.2169 18.5334L32.1255 22.0014L33.2746 25.4485L37.962 21.9455C41.8297 19.0661 39.7637 12.9191 34.9293 12.9273L29.0766 12.9522L30.2494 16.4068Z" fill="#0AACA4"/>
<path fill-rule="evenodd" clip-rule="evenodd" d="M29.0842 12.9286L30.2496 16.4068L33.2009 18.5024L34.9295 12.9274C36.3537 8.31956 31.0697 4.55636 27.1622 7.39732L22.435 10.8619L25.4099 12.9649L29.0842 12.9286Z" fill="#143458"/>
<path d="M19.4713 13.0146L22.4187 10.8308L25.4099 12.9649L29.0294 12.9373L27.1385 7.38988C25.586 2.83053 19.0991 2.88915 17.6277 7.48207L15.8518 13.0422L19.4713 13.0146Z" fill="#0AACA4"/>
<path d="M15.8206 13.0584L19.4713 13.0146L22.4112 10.8544L17.6039 7.47463C13.6693 4.70653 8.45522 8.56235 9.95301 13.1304L11.8129 18.694L14.7292 16.5263L15.8206 13.0584Z" fill="#143458"/>
<path d="M12.9475 22.1883L11.7821 18.7101L14.7295 16.5263L15.8135 13.082L9.94586 13.154C5.12022 13.2169 3.17493 19.3979 7.09474 22.2131L11.8635 25.6327L12.9475 22.1883Z" fill="#0AACA4"/>
<path d="M15.9962 31.2375L14.8234 27.783L11.8558 25.6563L12.9473 22.1883L11.7981 18.7412L7.08709 22.2368C3.24306 25.1236 5.309 31.2706 10.1198 31.2549L15.9962 31.2375Z" fill="#143458"/>
<path d="M11.872 25.6873L10.1434 31.2624C8.71922 35.8702 14.0033 39.6334 17.8871 36.785L22.6144 33.3204L19.663 31.2248L15.9888 31.2611L14.8234 27.783L11.872 25.6873Z" fill="#0AACA4"/>
<path d="M29.2212 31.1475L25.6016 31.1751L22.6543 33.3589L19.6631 31.2248L16.0199 31.2449L17.9108 36.7924C19.487 41.3592 25.9738 41.3005 27.4453 36.7076L29.2212 31.1475Z" fill="#143458"/>
<path d="M33.2599 25.4957L30.3436 27.6634L29.2521 31.1313L25.6015 31.1751L22.6616 33.3353L27.4452 36.7077C31.4035 39.4832 36.6175 35.6274 35.0961 31.0519L33.2599 25.4957Z" fill="#0AACA4"/>
<path d="M35.1035 31.0283C37.5555 30.9962 39.2516 29.4039 39.8368 27.4619L33.2659 25.3939L33.2909 25.4796L30.3435 27.6634L29.2595 31.1077L35.1035 31.0283Z" fill="#143458"/>
<path d="M21.4 27.344L22.324 16.484C22.332 16.388 22.372 16.304 22.444 16.232C22.516 16.152 22.612 16.112 22.732 16.112L23.284 16.112L22.372 26.96C22.364 27.056 22.32 27.144 22.24 27.224C22.168 27.304 22.072 27.344 21.952 27.344L21.4 27.344ZM22.18 26.096C21.852 26.096 21.532 26.076 21.22 26.036C20.916 25.996 20.624 25.944 20.344 25.88C20.072 25.808 19.812 25.728 19.564 25.64L19.564 24.452L20.332 24.368C20.676 24.528 21 24.636 21.304 24.692C21.616 24.74 21.936 24.764 22.264 24.764C22.56 24.764 22.812 24.716 23.02 24.62C23.228 24.524 23.388 24.384 23.5 24.2C23.62 24.008 23.68 23.784 23.68 23.528C23.68 23.288 23.62 23.096 23.5 22.952C23.388 22.8 23.232 22.676 23.032 22.58C22.84 22.484 22.628 22.404 22.396 22.34C22.164 22.268 21.924 22.192 21.676 22.112C21.332 21.992 21.004 21.844 20.692 21.668C20.388 21.484 20.144 21.24 19.96 20.936C19.776 20.632 19.684 20.236 19.684 19.748C19.684 19.276 19.804 18.848 20.044 18.464C20.284 18.08 20.616 17.776 21.04 17.552C21.472 17.328 21.976 17.216 22.552 17.216C22.96 17.216 23.384 17.276 23.824 17.396C24.272 17.516 24.668 17.684 25.012 17.9L25.012 18.86L24.148 18.848C23.9 18.76 23.644 18.688 23.38 18.632C23.124 18.576 22.852 18.548 22.564 18.548C22.14 18.548 21.812 18.648 21.58 18.848C21.348 19.04 21.232 19.296 21.232 19.616C21.232 19.896 21.332 20.116 21.532 20.276C21.74 20.436 21.996 20.568 22.3 20.672C22.612 20.768 22.924 20.872 23.236 20.984C23.604 21.112 23.94 21.268 24.244 21.452C24.548 21.628 24.788 21.864 24.964 22.16C25.14 22.448 25.228 22.828 25.228 23.3C25.228 23.836 25.104 24.316 24.856 24.74C24.616 25.164 24.268 25.496 23.812 25.736C23.356 25.976 22.812 26.096 22.18 26.096ZM23.848 18.584L25.012 18.86L25.012 19.916L24.388 19.916C24.284 19.916 24.204 19.888 24.148 19.832C24.092 19.768 24.052 19.68 24.028 19.568L23.848 18.584ZM20.728 24.728L19.564 24.452L19.564 23.396L20.188 23.396C20.292 23.396 20.372 23.428 20.428 23.492C20.492 23.548 20.532 23.632 20.548 23.744L20.728 24.728Z" fill="url(#paint0_linear_7_514)"/>
<defs>
<linearGradient id="paint0_linear_7_514" x1="22.5" y1="15" x2="22.5" y2="29" gradientUnits="userSpaceOnUse">
<stop stop-color="#0AACA4"/>
<stop offset="1" stop-color="#143458"/>
</linearGradient>
</defs>
</svg>
