<svg width="205" height="77" viewBox="0 0 205 77" fill="none" xmlns="http://www.w3.org/2000/svg">
<path d="M37.3717 28.4042L33.5694 31.2214L32.1709 35.6649L39.7101 35.5624C45.966 35.4909 48.4756 27.5169 43.3883 23.8754L37.2667 19.4736L35.8683 23.9171L37.3717 28.4042Z" fill="#0078FF"/>
<path d="M33.4479 16.6996L37.2763 19.4432L35.8683 23.9171L37.3507 28.3642L43.3978 23.845C48.3874 20.1303 45.7222 12.2002 39.4854 12.2109L31.9349 12.2429L33.4479 16.6996Z" fill="white"/>
<path fill-rule="evenodd" clip-rule="evenodd" d="M31.9445 12.2124L33.4479 16.6996L37.2554 19.403L39.4854 12.2109C41.3227 6.26649 34.506 1.41158 29.465 5.07664L23.3665 9.54616L27.2044 12.2593L31.9445 12.2124Z" fill="#0078FF"/>
<path d="M19.5433 12.3235L23.3456 9.50619L27.2044 12.2593L31.874 12.2237L29.4345 5.06711C27.4317 -0.814796 19.0632 -0.739165 17.1648 5.18604L14.8738 12.3591L19.5433 12.3235Z" fill="white"/>
<path d="M14.8336 12.3799L19.5433 12.3235L23.3359 9.53664L17.1342 5.17645C12.0582 1.60539 5.33167 6.57969 7.26393 12.4728L9.66333 19.6503L13.4256 16.8539L14.8336 12.3799Z" fill="#0078FF"/>
<path d="M11.1268 24.1582L9.62334 19.6711L13.4256 16.8539L14.8241 12.4104L7.25443 12.5033C1.02898 12.5844 -1.4806 20.5583 3.57626 24.1903L9.7283 28.6017L11.1268 24.1582Z" fill="white"/>
<path d="M15.0601 35.8324L13.5471 31.3757L9.71873 28.6321L11.1268 24.1582L9.64426 19.7111L3.56669 24.2207C-1.3924 27.945 1.27282 35.8751 7.4791 35.8548L15.0601 35.8324Z" fill="#0078FF"/>
<path d="M9.73964 28.6722L7.50959 35.8644C5.67226 41.8088 12.4891 46.6636 17.4996 42.989L23.5981 38.5195L19.7906 35.816L15.0505 35.8628L13.5471 31.3757L9.73964 28.6722Z" fill="white"/>
<path d="M32.1212 35.7161L27.4517 35.7518L23.6494 38.569L19.7906 35.816L15.0905 35.8419L17.53 42.9985C19.5633 48.89 27.9319 48.8144 29.8302 42.8892L32.1212 35.7161Z" fill="#0078FF"/>
<path d="M37.3317 28.425L33.5694 31.2214L32.1614 35.6954L27.4517 35.7518L23.6591 38.5387L29.8302 42.8892C34.9367 46.4698 41.6633 41.4956 39.7006 35.5929L37.3317 28.425Z" fill="white"/>
<path d="M39.7101 35.5624C42.8734 35.521 45.0615 33.4667 45.8164 30.9615L37.3394 28.2936L37.3717 28.4042L33.5694 31.2214L32.1709 35.6649L39.7101 35.5624Z" fill="#0078FF"/>
<path d="M60.2848 42.8168V3.38185H84.5948V7.72685H65.6748V20.8718H80.1948V25.0518H65.6748V38.4718H84.5948V42.8168H60.2848ZM80.0848 39.8468L80.9098 34.3468C80.9831 34.0168 81.1114 33.7968 81.2948 33.6868C81.5148 33.5402 81.7714 33.4668 82.0648 33.4668H84.5948V38.4718L80.0848 39.8468ZM80.0848 6.35185L84.5948 7.72685V12.7318H82.0648C81.7714 12.7318 81.5148 12.6768 81.2948 12.5668C81.1114 12.4202 80.9831 12.1818 80.9098 11.8518L80.0848 6.35185ZM61.9348 3.38185L61.3298 7.67184L57.2048 6.79185C56.9114 6.71851 56.6914 6.59018 56.5448 6.40685C56.3981 6.22351 56.3248 5.96685 56.3248 5.63685V3.38185H61.9348ZM56.3248 42.8168V40.5618C56.3248 40.2318 56.3981 39.9752 56.5448 39.7918C56.6914 39.5718 56.9114 39.4435 57.2048 39.4068L61.3298 38.5268L61.9348 42.8168H56.3248Z" fill="white"/>
<path d="M89.2586 42.8168V40.7818C89.2586 40.5252 89.3136 40.2502 89.4236 39.9568C89.5703 39.6268 89.7536 39.3152 89.9736 39.0218L105.099 18.7818H90.0836V14.9318H110.819V17.0218C110.819 17.3885 110.745 17.7185 110.599 18.0118C110.452 18.3052 110.287 18.5985 110.104 18.8918L95.0336 38.9668H110.489V42.8168H89.2586ZM93.6036 18.0668L93.0536 22.1918C93.0169 22.4485 92.9069 22.6685 92.7236 22.8518C92.5769 22.9985 92.3019 23.0718 91.8986 23.0718H90.0836V18.7818L93.6036 18.0668ZM106.969 39.6818L107.519 35.5568C107.555 35.3002 107.665 35.0985 107.849 34.9518C108.032 34.7685 108.307 34.6768 108.674 34.6768H110.489V38.9668L106.969 39.6818Z" fill="white"/>
<path d="M118.776 42.8168V3.38185H130.491C133.644 3.38185 136.303 3.85851 138.466 4.81185C140.666 5.76518 142.334 7.15851 143.471 8.99185C144.608 10.7885 145.176 12.9885 145.176 15.5918C145.176 18.1218 144.571 20.3218 143.361 22.1918C142.188 24.0618 140.501 25.5102 138.301 26.5368C136.101 27.5635 133.498 28.0768 130.491 28.0768H124.166V42.8168H118.776ZM124.166 23.8418H130.491C132.434 23.8418 134.103 23.5118 135.496 22.8518C136.889 22.1552 137.953 21.2018 138.686 19.9918C139.456 18.7452 139.841 17.2785 139.841 15.5918C139.841 13.0985 139.053 11.1552 137.476 9.76185C135.936 8.33185 133.608 7.61685 130.491 7.61685H124.166V23.8418ZM114.816 42.8168V40.5618C114.816 40.2318 114.889 39.9752 115.036 39.7918C115.183 39.5718 115.403 39.4435 115.696 39.4068L119.821 38.5268L120.426 42.8168H114.816ZM120.426 3.38185L119.821 7.67184L115.696 6.79185C115.403 6.71851 115.183 6.59018 115.036 6.40685C114.889 6.22351 114.816 5.96685 114.816 5.63685V3.38185H120.426ZM122.516 42.8168L123.121 38.5268L127.246 39.4068C127.539 39.4435 127.759 39.5718 127.906 39.7918C128.053 39.9752 128.126 40.2318 128.126 40.5618V42.8168H122.516Z" fill="white"/>
<path d="M154.964 43.2568C153.497 43.2568 152.177 42.9818 151.004 42.4318C149.83 41.8452 148.895 41.0018 148.199 39.9018C147.502 38.8018 147.154 37.4452 147.154 35.8318C147.154 34.7318 147.447 33.6868 148.034 32.6968C148.657 31.6702 149.647 30.7535 151.004 29.9468C152.36 29.1768 154.12 28.5352 156.284 28.0218C158.484 27.5085 161.16 27.2152 164.314 27.1418V24.9968C164.314 22.8335 163.837 21.2018 162.884 20.1018C161.967 18.9652 160.61 18.3968 158.814 18.3968C157.86 18.3968 156.852 18.6535 155.789 19.1668C154.762 19.6435 153.809 20.1385 152.929 20.6518C152.049 21.1285 151.352 21.3668 150.839 21.3668C150.509 21.3668 150.215 21.2752 149.959 21.0918C149.739 20.9085 149.555 20.6885 149.409 20.4318L148.529 18.8918C150.069 17.3885 151.719 16.2702 153.479 15.5368C155.275 14.8035 157.255 14.4368 159.419 14.4368C161.509 14.4368 163.269 14.8768 164.699 15.7568C166.129 16.6368 167.21 17.8652 167.944 19.4418C168.714 21.0185 169.099 22.8702 169.099 24.9968V42.8168H166.954C166.477 42.8168 166.092 42.7435 165.799 42.5968C165.505 42.4502 165.304 42.1385 165.194 41.6618L164.644 39.0768C163.177 40.3968 161.711 41.4235 160.244 42.1568C158.777 42.8902 157.017 43.2568 154.964 43.2568ZM156.394 39.7918C158.044 39.7918 159.492 39.4618 160.739 38.8018C161.985 38.1418 163.177 37.2252 164.314 36.0518V30.2768C162.407 30.3135 160.684 30.4602 159.144 30.7168C157.604 30.9368 156.284 31.2668 155.184 31.7068C154.12 32.1102 153.295 32.6418 152.709 33.3018C152.159 33.9252 151.884 34.6952 151.884 35.6118C151.884 37.0785 152.306 38.1418 153.149 38.8018C154.029 39.4618 155.11 39.7918 156.394 39.7918ZM167.449 42.8168L168.054 38.5268L172.179 39.4068C172.472 39.4435 172.692 39.5718 172.839 39.7918C172.986 39.9752 173.059 40.2318 173.059 40.5618V42.8168H167.449Z" fill="white"/>
<path d="M182.074 52.2768L187.134 41.1668L175.639 14.9318H179.874C180.314 14.9318 180.644 15.0418 180.864 15.2618C181.12 15.4818 181.304 15.7202 181.414 15.9768L188.839 33.5218C188.949 33.7785 189.077 34.1452 189.224 34.6218C189.37 35.0985 189.499 35.5385 189.609 35.9418C189.682 35.6485 189.755 35.3735 189.829 35.1168C189.902 34.8602 189.994 34.6035 190.104 34.3468C190.214 34.0535 190.324 33.7602 190.434 33.4668L197.639 15.9768C197.749 15.6835 197.932 15.4452 198.189 15.2618C198.482 15.0418 198.775 14.9318 199.069 14.9318H202.974L187.464 51.0668C187.317 51.4335 187.115 51.7268 186.859 51.9468C186.602 52.1668 186.217 52.2768 185.704 52.2768H182.074ZM179.159 16.3068V14.9318H183.284V16.3068H179.159ZM196.209 16.3068V14.9318H200.334V16.3068H196.209ZM179.489 14.9318L178.884 19.2218L174.759 18.3418C174.465 18.2685 174.245 18.1402 174.099 17.9568C173.952 17.7735 173.879 17.5168 173.879 17.1868V14.9318H179.489ZM186.364 14.9318V17.1868C186.364 17.5168 186.29 17.7735 186.144 17.9568C185.997 18.1402 185.777 18.2685 185.484 18.3418L181.359 19.2218L180.754 14.9318H186.364ZM197.859 14.9318L197.254 19.2218L193.129 18.3418C192.835 18.2685 192.615 18.1402 192.469 17.9568C192.322 17.7735 192.249 17.5168 192.249 17.1868V14.9318H197.859ZM204.734 14.9318V17.1868C204.734 17.5168 204.66 17.7735 204.514 17.9568C204.367 18.1402 204.147 18.2685 203.854 18.3418L199.729 19.2218L199.124 14.9318H204.734Z" fill="white"/>
<path d="M10.89 76V63.094H18.846V64.516H12.654V69.034H17.946V70.456H12.654V76H10.89ZM17.37 64.066L18.846 64.516V66.154H18.018C17.922 66.154 17.838 66.136 17.766 66.1C17.706 66.052 17.664 65.974 17.64 65.866L17.37 64.066ZM11.43 63.094L11.232 64.498L9.882 64.21C9.786 64.186 9.714 64.144 9.666 64.084C9.618 64.024 9.594 63.94 9.594 63.832V63.094H11.43ZM9.594 76V75.262C9.594 75.154 9.618 75.07 9.666 75.01C9.714 74.938 9.786 74.896 9.882 74.884L11.232 74.596L11.43 76H9.594ZM12.114 76L12.312 74.596L13.662 74.884C13.758 74.896 13.83 74.938 13.878 75.01C13.926 75.07 13.95 75.154 13.95 75.262V76H12.114Z" fill="white"/>
<path d="M22.2235 76.144C21.7435 76.144 21.3115 76.054 20.9275 75.874C20.5435 75.682 20.2375 75.406 20.0095 75.046C19.7815 74.686 19.6675 74.242 19.6675 73.714C19.6675 73.354 19.7635 73.012 19.9555 72.688C20.1595 72.352 20.4835 72.052 20.9275 71.788C21.3715 71.536 21.9475 71.326 22.6555 71.158C23.3755 70.99 24.2515 70.894 25.2835 70.87V70.168C25.2835 69.46 25.1275 68.926 24.8155 68.566C24.5155 68.194 24.0715 68.0079 23.4835 68.0079C23.1715 68.0079 22.8415 68.092 22.4935 68.26C22.1575 68.416 21.8455 68.578 21.5575 68.746C21.2695 68.902 21.0415 68.9799 20.8735 68.9799C20.7655 68.9799 20.6695 68.95 20.5855 68.89C20.5135 68.83 20.4535 68.758 20.4055 68.674L20.1175 68.17C20.6215 67.678 21.1615 67.312 21.7375 67.072C22.3255 66.832 22.9735 66.712 23.6815 66.712C24.3655 66.712 24.9415 66.856 25.4095 67.144C25.8775 67.432 26.2315 67.834 26.4715 68.35C26.7235 68.866 26.8495 69.472 26.8495 70.168V76H26.1475C25.9915 76 25.8655 75.976 25.7695 75.928C25.6735 75.88 25.6075 75.778 25.5715 75.622L25.3915 74.776C24.9115 75.208 24.4315 75.544 23.9515 75.784C23.4715 76.024 22.8955 76.144 22.2235 76.144ZM22.6915 75.01C23.2315 75.01 23.7055 74.902 24.1135 74.686C24.5215 74.47 24.9115 74.17 25.2835 73.786V71.896C24.6595 71.908 24.0955 71.956 23.5915 72.04C23.0875 72.112 22.6555 72.22 22.2955 72.364C21.9475 72.496 21.6775 72.67 21.4855 72.886C21.3055 73.09 21.2155 73.342 21.2155 73.642C21.2155 74.122 21.3535 74.47 21.6295 74.686C21.9175 74.902 22.2715 75.01 22.6915 75.01ZM26.3095 76L26.5075 74.596L27.8575 74.884C27.9535 74.896 28.0255 74.938 28.0735 75.01C28.1215 75.07 28.1455 75.154 28.1455 75.262V76H26.3095Z" fill="white"/>
<path d="M31.9531 76.144C31.5211 76.144 31.0351 76.096 30.4951 76C29.9671 75.904 29.5111 75.784 29.1271 75.64V74.308L29.9191 74.488C30.0751 74.596 30.3211 74.71 30.6571 74.83C31.0051 74.938 31.4071 74.992 31.8631 74.992C32.5471 74.992 33.0511 74.854 33.3751 74.578C33.6991 74.29 33.8611 73.942 33.8611 73.534C33.8611 73.174 33.7531 72.898 33.5371 72.706C33.3211 72.514 33.0331 72.358 32.6731 72.238C32.3131 72.118 31.9231 71.992 31.5031 71.86C31.0711 71.716 30.6751 71.548 30.3151 71.356C29.9551 71.164 29.6671 70.918 29.4511 70.618C29.2351 70.306 29.1271 69.916 29.1271 69.448C29.1271 68.908 29.2651 68.434 29.5411 68.026C29.8291 67.618 30.2131 67.3 30.6931 67.072C31.1851 66.844 31.7371 66.7299 32.3491 66.7299C32.6971 66.7299 33.0811 66.772 33.5011 66.856C33.9331 66.94 34.4011 67.066 34.9051 67.234V68.3139L33.9511 68.188C33.6991 68.1159 33.4411 68.0559 33.1771 68.0079C32.9251 67.96 32.6791 67.936 32.4391 67.936C32.0911 67.936 31.7791 67.99 31.5031 68.098C31.2391 68.206 31.0291 68.356 30.8731 68.548C30.7171 68.74 30.6391 68.962 30.6391 69.214C30.6391 69.55 30.7651 69.82 31.0171 70.024C31.2811 70.216 31.5991 70.372 31.9711 70.492C32.3431 70.612 32.6971 70.726 33.0331 70.834C33.4291 70.954 33.8011 71.11 34.1491 71.302C34.5091 71.494 34.8031 71.746 35.0311 72.058C35.2591 72.37 35.3731 72.778 35.3731 73.282C35.3731 73.822 35.2291 74.308 34.9411 74.74C34.6651 75.172 34.2691 75.514 33.7531 75.766C33.2491 76.018 32.6491 76.144 31.9531 76.144ZM33.7531 67.936L34.9051 68.17V69.574H34.3111C34.1911 69.574 34.1011 69.55 34.0411 69.502C33.9811 69.442 33.9451 69.3699 33.9331 69.2859L33.7531 67.936ZM30.2791 74.902L29.1271 74.668V73.264H29.7211C29.8531 73.264 29.9431 73.294 29.9911 73.354C30.0511 73.402 30.0871 73.468 30.0991 73.552L30.2791 74.902Z" fill="white"/>
<path d="M39.9592 76.144C39.2392 76.144 38.6812 75.946 38.2852 75.55C37.9012 75.142 37.7092 74.56 37.7092 73.804V68.224H36.6112C36.5152 68.224 36.4312 68.194 36.3592 68.134C36.2992 68.074 36.2692 67.984 36.2692 67.864V67.234L37.7632 67.0359L38.1412 64.228C38.1652 64.024 38.2852 63.922 38.5012 63.922H39.3112V67.054H41.9212V68.224H39.3112V73.696C39.3112 74.08 39.4012 74.368 39.5812 74.56C39.7732 74.74 40.0192 74.83 40.3192 74.83C40.4512 74.83 40.5952 74.794 40.7512 74.722C40.9072 74.65 41.0512 74.578 41.1832 74.506C41.3152 74.434 41.4112 74.398 41.4712 74.398C41.5552 74.398 41.6272 74.446 41.6872 74.542L42.1552 75.316C41.8792 75.568 41.5432 75.772 41.1472 75.928C40.7632 76.072 40.3672 76.144 39.9592 76.144Z" fill="white"/>
<path d="M44.5002 76.144C44.2002 76.144 43.9362 76.036 43.7082 75.82C43.4922 75.592 43.3842 75.322 43.3842 75.01C43.3842 74.698 43.4922 74.434 43.7082 74.218C43.9362 73.99 44.2002 73.876 44.5002 73.876C44.8122 73.876 45.0762 73.99 45.2922 74.218C45.5202 74.434 45.6342 74.698 45.6342 75.01C45.6342 75.322 45.5202 75.592 45.2922 75.82C45.0762 76.036 44.8122 76.144 44.5002 76.144Z" fill="white"/>
<path d="M55.7072 76.144C55.2512 76.144 54.7832 76.102 54.3032 76.018C53.8352 75.946 53.3972 75.856 52.9892 75.748C52.5932 75.64 52.2752 75.544 52.0352 75.46V73.858L53.4212 74.2C53.9132 74.38 54.3272 74.506 54.6632 74.578C55.0112 74.65 55.4072 74.686 55.8512 74.686C56.3912 74.686 56.8532 74.59 57.2372 74.398C57.6332 74.206 57.9392 73.936 58.1552 73.588C58.3712 73.24 58.4792 72.844 58.4792 72.4C58.4792 71.98 58.3892 71.638 58.2092 71.374C58.0292 71.11 57.7892 70.9 57.4892 70.7439C57.1892 70.5759 56.8532 70.438 56.4812 70.33C56.1212 70.21 55.7492 70.084 55.3652 69.952C54.8732 69.784 54.3872 69.574 53.9072 69.322C53.4392 69.07 53.0552 68.7339 52.7552 68.3139C52.4552 67.8819 52.3052 67.312 52.3052 66.604C52.3052 65.896 52.4672 65.266 52.7912 64.714C53.1272 64.162 53.5952 63.73 54.1952 63.418C54.7952 63.106 55.5032 62.95 56.3192 62.95C56.8352 62.95 57.4052 63.016 58.0292 63.148C58.6652 63.268 59.2652 63.448 59.8292 63.688V65.02L58.4612 64.75C58.0772 64.642 57.6932 64.558 57.3092 64.498C56.9372 64.438 56.6072 64.408 56.3192 64.408C55.5872 64.408 55.0052 64.5939 54.5732 64.966C54.1412 65.326 53.9252 65.794 53.9252 66.37C53.9252 66.874 54.0752 67.264 54.3752 67.54C54.6872 67.816 55.0772 68.038 55.5452 68.206C56.0252 68.374 56.5172 68.548 57.0212 68.728C57.5852 68.92 58.1012 69.148 58.5692 69.412C59.0372 69.676 59.4092 70.024 59.6852 70.456C59.9732 70.876 60.1172 71.44 60.1172 72.148C60.1172 72.904 59.9372 73.588 59.5772 74.2C59.2292 74.8 58.7252 75.274 58.0652 75.622C57.4172 75.97 56.6312 76.144 55.7072 76.144ZM58.3532 64.57L59.8292 65.02V66.658H59.0012C58.9052 66.658 58.8212 66.64 58.7492 66.604C58.6892 66.556 58.6472 66.478 58.6232 66.37L58.3532 64.57ZM53.5112 74.308L52.0352 73.858V72.22H52.8632C52.9592 72.22 53.0432 72.244 53.1152 72.292C53.1872 72.328 53.2292 72.3999 53.2412 72.5079L53.5112 74.308Z" fill="white"/>
<path d="M65.8938 76.126C65.0178 76.126 64.2498 75.928 63.5898 75.532C62.9418 75.136 62.4378 74.572 62.0778 73.84C61.7178 73.108 61.5378 72.244 61.5378 71.248C61.5378 70.396 61.7118 69.628 62.0598 68.944C62.4078 68.26 62.8998 67.72 63.5358 67.324C64.1838 66.928 64.9398 66.7299 65.8038 66.7299C66.5598 66.7299 67.2198 66.898 67.7838 67.234C68.3478 67.57 68.7858 68.044 69.0978 68.656C69.4218 69.256 69.5838 69.976 69.5838 70.816C69.5838 71.068 69.5538 71.236 69.4938 71.32C69.4458 71.404 69.3438 71.446 69.1878 71.446H63.1218C63.1218 71.482 63.1218 71.524 63.1218 71.572C63.1218 71.608 63.1218 71.644 63.1218 71.68C63.1818 72.688 63.4638 73.474 63.9678 74.038C64.4718 74.59 65.1558 74.866 66.0198 74.866C66.3918 74.866 66.7578 74.794 67.1178 74.65C67.4898 74.494 67.8138 74.344 68.0898 74.2C68.3778 74.056 68.5818 73.984 68.7018 73.984C68.8338 73.984 68.9358 74.032 69.0078 74.128L69.4578 74.722C69.2178 75.034 68.8938 75.298 68.4858 75.514C68.0898 75.718 67.6638 75.874 67.2078 75.982C66.7518 76.078 66.3138 76.126 65.8938 76.126ZM63.1758 70.438H68.1438C68.1438 69.694 67.9398 69.088 67.5318 68.62C67.1238 68.152 66.5598 67.918 65.8398 67.918C65.0598 67.918 64.4478 68.14 64.0038 68.584C63.5598 69.028 63.2838 69.6459 63.1758 70.438Z" fill="white"/>
<path d="M74.8335 76.126C74.0415 76.126 73.3395 75.934 72.7275 75.55C72.1275 75.154 71.6535 74.602 71.3055 73.894C70.9695 73.186 70.8015 72.364 70.8015 71.428C70.8015 70.516 70.9635 69.706 71.2875 68.998C71.6115 68.29 72.0915 67.7379 72.7275 67.3419C73.3635 66.9339 74.1555 66.7299 75.1035 66.7299C75.4755 66.7299 75.9075 66.796 76.3995 66.928C76.8915 67.048 77.3595 67.198 77.8035 67.378V68.35L76.8675 68.296C76.6275 68.212 76.3695 68.14 76.0935 68.08C75.8295 68.02 75.5295 67.99 75.1935 67.99C74.5815 67.99 74.0715 68.134 73.6635 68.422C73.2675 68.698 72.9675 69.094 72.7635 69.61C72.5595 70.126 72.4575 70.732 72.4575 71.428C72.4575 72.472 72.6855 73.312 73.1415 73.948C73.5975 74.572 74.2515 74.884 75.1035 74.884C75.5715 74.884 75.9555 74.812 76.2555 74.668C76.5555 74.512 76.8015 74.362 76.9935 74.218C77.1855 74.062 77.3355 73.984 77.4435 73.984C77.5035 73.984 77.5575 73.996 77.6055 74.02C77.6655 74.044 77.7135 74.08 77.7495 74.128L78.1995 74.722C77.8035 75.202 77.3115 75.556 76.7235 75.784C76.1355 76.012 75.5055 76.126 74.8335 76.126ZM76.6515 68.116L77.8035 68.35V69.754H77.2095C77.0895 69.754 76.9995 69.73 76.9395 69.682C76.8795 69.622 76.8435 69.55 76.8315 69.466L76.6515 68.116Z" fill="white"/>
<path d="M83.1613 76.144C82.5013 76.144 81.9433 76 81.4873 75.712C81.0313 75.412 80.6833 75.004 80.4433 74.488C80.2153 73.972 80.1013 73.372 80.1013 72.688V66.874H81.7033V72.688C81.7033 73.384 81.8593 73.924 82.1713 74.308C82.4953 74.68 82.9813 74.866 83.6293 74.866C84.0973 74.866 84.5353 74.758 84.9433 74.542C85.3633 74.314 85.7473 74.002 86.0953 73.606V66.874H87.6973V76H86.7433C86.5033 76 86.3593 75.886 86.3113 75.658L86.1853 74.686C85.7893 75.118 85.3453 75.472 84.8533 75.748C84.3613 76.012 83.7973 76.144 83.1613 76.144ZM87.1573 76L87.3553 74.596L88.7053 74.884C88.8013 74.896 88.8733 74.938 88.9213 75.01C88.9693 75.07 88.9933 75.154 88.9933 75.262V76H87.1573ZM80.6413 66.874L80.4433 68.278L79.0933 67.99C78.9973 67.966 78.9253 67.924 78.8773 67.864C78.8293 67.804 78.8053 67.72 78.8053 67.612V66.874H80.6413ZM86.6353 66.874L86.4373 68.278L85.0873 67.99C84.9913 67.966 84.9193 67.924 84.8713 67.864C84.8233 67.804 84.7993 67.72 84.7993 67.612V66.874H86.6353Z" fill="white"/>
<path d="M91.0266 76V66.874H91.9446C92.1246 66.874 92.2506 66.91 92.3226 66.982C92.3946 67.042 92.4366 67.156 92.4486 67.324L92.5566 68.746C92.8686 68.11 93.2526 67.612 93.7086 67.252C94.1646 66.892 94.7046 66.712 95.3286 66.712C95.5806 66.712 95.8086 66.742 96.0126 66.802C96.2166 66.862 96.4026 66.9399 96.5706 67.0359L96.3726 68.242C96.3606 68.314 96.3246 68.368 96.2646 68.404C96.2166 68.44 96.1566 68.458 96.0846 68.458C96.0006 68.458 95.8386 68.434 95.5986 68.386C95.3586 68.326 95.1486 68.296 94.9686 68.296C94.4166 68.296 93.9486 68.458 93.5646 68.782C93.1926 69.106 92.8806 69.574 92.6286 70.186V76H91.0266ZM92.0886 76L92.2866 74.596L93.6366 74.884C93.7326 74.896 93.8046 74.938 93.8526 75.01C93.9006 75.07 93.9246 75.154 93.9246 75.262V76H92.0886ZM89.7306 76V75.262C89.7306 75.154 89.7546 75.07 89.8026 75.01C89.8506 74.938 89.9226 74.896 90.0186 74.884L91.3686 74.596L91.5666 76H89.7306ZM91.5666 66.874L91.3686 68.278L90.0186 67.99C89.9226 67.966 89.8506 67.924 89.8026 67.864C89.7546 67.804 89.7306 67.72 89.7306 67.612V66.874H91.5666Z" fill="white"/>
<path d="M101.788 76.126C100.912 76.126 100.144 75.928 99.4843 75.532C98.8363 75.136 98.3323 74.572 97.9723 73.84C97.6123 73.108 97.4323 72.244 97.4323 71.248C97.4323 70.396 97.6063 69.628 97.9543 68.944C98.3023 68.26 98.7943 67.72 99.4303 67.324C100.078 66.928 100.834 66.7299 101.698 66.7299C102.454 66.7299 103.114 66.898 103.678 67.234C104.242 67.57 104.68 68.044 104.992 68.656C105.316 69.256 105.478 69.976 105.478 70.816C105.478 71.068 105.448 71.236 105.388 71.32C105.34 71.404 105.238 71.446 105.082 71.446H99.0163C99.0163 71.482 99.0163 71.524 99.0163 71.572C99.0163 71.608 99.0163 71.644 99.0163 71.68C99.0763 72.688 99.3583 73.474 99.8623 74.038C100.366 74.59 101.05 74.866 101.914 74.866C102.286 74.866 102.652 74.794 103.012 74.65C103.384 74.494 103.708 74.344 103.984 74.2C104.272 74.056 104.476 73.984 104.596 73.984C104.728 73.984 104.83 74.032 104.902 74.128L105.352 74.722C105.112 75.034 104.788 75.298 104.38 75.514C103.984 75.718 103.558 75.874 103.102 75.982C102.646 76.078 102.208 76.126 101.788 76.126ZM99.0703 70.438H104.038C104.038 69.694 103.834 69.088 103.426 68.62C103.018 68.152 102.454 67.918 101.734 67.918C100.954 67.918 100.342 68.14 99.8983 68.584C99.4543 69.028 99.1783 69.6459 99.0703 70.438Z" fill="white"/>
<path d="M108.01 76.144C107.71 76.144 107.446 76.036 107.218 75.82C107.002 75.592 106.894 75.322 106.894 75.01C106.894 74.698 107.002 74.434 107.218 74.218C107.446 73.99 107.71 73.876 108.01 73.876C108.322 73.876 108.586 73.99 108.802 74.218C109.03 74.434 109.144 74.698 109.144 75.01C109.144 75.322 109.03 75.592 108.802 75.82C108.586 76.036 108.322 76.144 108.01 76.144Z" fill="white"/>
<path d="M116.517 76V63.094H124.473V64.516H118.281V68.818H123.033V70.186H118.281V74.578H124.473V76H116.517ZM122.997 75.028L123.267 73.228C123.291 73.12 123.333 73.048 123.393 73.012C123.465 72.964 123.549 72.94 123.645 72.94H124.473V74.578L122.997 75.028ZM122.997 64.066L124.473 64.516V66.154H123.645C123.549 66.154 123.465 66.136 123.393 66.1C123.333 66.052 123.291 65.974 123.267 65.866L122.997 64.066ZM117.057 63.094L116.859 64.498L115.509 64.21C115.413 64.186 115.341 64.144 115.293 64.084C115.245 64.024 115.221 63.94 115.221 63.832V63.094H117.057ZM115.221 76V75.262C115.221 75.154 115.245 75.07 115.293 75.01C115.341 74.938 115.413 74.896 115.509 74.884L116.859 74.596L117.057 76H115.221Z" fill="white"/>
<path d="M127.223 76V68.242L126.215 68.134C126.095 68.098 125.993 68.05 125.909 67.99C125.825 67.93 125.783 67.84 125.783 67.72V67.054H127.223V66.172C127.223 65.14 127.505 64.342 128.069 63.778C128.633 63.202 129.395 62.914 130.355 62.914C130.559 62.914 130.757 62.932 130.949 62.968C131.141 62.992 131.321 63.034 131.489 63.094L131.453 63.886C131.441 63.994 131.405 64.066 131.345 64.102C131.297 64.126 131.231 64.138 131.147 64.138C131.063 64.138 130.979 64.138 130.895 64.138C130.811 64.138 130.721 64.138 130.625 64.138C130.025 64.138 129.569 64.306 129.257 64.642C128.945 64.966 128.789 65.494 128.789 66.226V67.054H131.417V68.224H128.843V76H127.223ZM125.927 76V75.262C125.927 75.154 125.951 75.07 125.999 75.01C126.047 74.938 126.119 74.896 126.215 74.884L127.565 74.596L127.763 76H125.927ZM128.303 76L128.501 74.596L129.851 74.884C129.947 74.896 130.019 74.938 130.067 75.01C130.115 75.07 130.139 75.154 130.139 75.262V76H128.303Z" fill="white"/>
<path d="M133.903 76V68.242L132.895 68.134C132.775 68.098 132.673 68.05 132.589 67.99C132.505 67.93 132.463 67.84 132.463 67.72V67.054H133.903V66.172C133.903 65.14 134.185 64.342 134.749 63.778C135.313 63.202 136.075 62.914 137.035 62.914C137.239 62.914 137.437 62.932 137.629 62.968C137.821 62.992 138.001 63.034 138.169 63.094L138.133 63.886C138.121 63.994 138.085 64.066 138.025 64.102C137.977 64.126 137.911 64.138 137.827 64.138C137.743 64.138 137.659 64.138 137.575 64.138C137.491 64.138 137.401 64.138 137.305 64.138C136.705 64.138 136.249 64.306 135.937 64.642C135.625 64.966 135.469 65.494 135.469 66.226V67.054H138.097V68.224H135.523V76H133.903ZM132.607 76V75.262C132.607 75.154 132.631 75.07 132.679 75.01C132.727 74.938 132.799 74.896 132.895 74.884L134.245 74.596L134.443 76H132.607ZM134.983 76L135.181 74.596L136.531 74.884C136.627 74.896 136.699 74.938 136.747 75.01C136.795 75.07 136.819 75.154 136.819 75.262V76H134.983Z" fill="white"/>
<path d="M143.607 66.7299C144.519 66.7299 145.293 66.928 145.929 67.324C146.577 67.708 147.075 68.254 147.423 68.962C147.771 69.67 147.945 70.492 147.945 71.428C147.945 72.364 147.771 73.186 147.423 73.894C147.075 74.602 146.577 75.154 145.929 75.55C145.293 75.934 144.519 76.126 143.607 76.126C142.719 76.126 141.945 75.934 141.285 75.55C140.637 75.154 140.133 74.602 139.773 73.894C139.425 73.186 139.251 72.364 139.251 71.428C139.251 70.492 139.425 69.67 139.773 68.962C140.133 68.254 140.637 67.708 141.285 67.324C141.945 66.928 142.719 66.7299 143.607 66.7299ZM143.607 74.866C144.507 74.866 145.179 74.566 145.623 73.966C146.067 73.366 146.289 72.526 146.289 71.446C146.289 70.714 146.187 70.096 145.983 69.592C145.791 69.076 145.497 68.68 145.101 68.404C144.705 68.128 144.207 67.99 143.607 67.99C142.995 67.99 142.485 68.134 142.077 68.422C141.681 68.698 141.387 69.094 141.195 69.61C141.003 70.126 140.907 70.738 140.907 71.446C140.907 72.49 141.129 73.324 141.573 73.948C142.017 74.56 142.695 74.866 143.607 74.866Z" fill="white"/>
<path d="M150.353 76V66.874H151.271C151.451 66.874 151.577 66.91 151.649 66.982C151.721 67.042 151.763 67.156 151.775 67.324L151.883 68.746C152.195 68.11 152.579 67.612 153.035 67.252C153.491 66.892 154.031 66.712 154.655 66.712C154.907 66.712 155.135 66.742 155.339 66.802C155.543 66.862 155.729 66.9399 155.897 67.0359L155.699 68.242C155.687 68.314 155.651 68.368 155.591 68.404C155.543 68.44 155.483 68.458 155.411 68.458C155.327 68.458 155.165 68.434 154.925 68.386C154.685 68.326 154.475 68.296 154.295 68.296C153.743 68.296 153.275 68.458 152.891 68.782C152.519 69.106 152.207 69.574 151.955 70.186V76H150.353ZM151.415 76L151.613 74.596L152.963 74.884C153.059 74.896 153.131 74.938 153.179 75.01C153.227 75.07 153.251 75.154 153.251 75.262V76H151.415ZM149.057 76V75.262C149.057 75.154 149.081 75.07 149.129 75.01C149.177 74.938 149.249 74.896 149.345 74.884L150.695 74.596L150.893 76H149.057ZM150.893 66.874L150.695 68.278L149.345 67.99C149.249 67.966 149.177 67.924 149.129 67.864C149.081 67.804 149.057 67.72 149.057 67.612V66.874H150.893Z" fill="white"/>
<path d="M160.07 76.144C159.35 76.144 158.792 75.946 158.396 75.55C158.012 75.142 157.82 74.56 157.82 73.804V68.224H156.722C156.626 68.224 156.542 68.194 156.47 68.134C156.41 68.074 156.38 67.984 156.38 67.864V67.234L157.874 67.0359L158.252 64.228C158.276 64.024 158.396 63.922 158.612 63.922H159.422V67.054H162.032V68.224H159.422V73.696C159.422 74.08 159.512 74.368 159.692 74.56C159.884 74.74 160.13 74.83 160.43 74.83C160.562 74.83 160.706 74.794 160.862 74.722C161.018 74.65 161.162 74.578 161.294 74.506C161.426 74.434 161.522 74.398 161.582 74.398C161.666 74.398 161.738 74.446 161.798 74.542L162.266 75.316C161.99 75.568 161.654 75.772 161.258 75.928C160.874 76.072 160.478 76.144 160.07 76.144Z" fill="white"/>
<path d="M164.486 76V62.734H166.088V76H164.486ZM163.19 76V75.262C163.19 75.154 163.214 75.07 163.262 75.01C163.31 74.938 163.382 74.896 163.478 74.884L164.828 74.596L165.026 76H163.19ZM165.548 76L165.746 74.596L167.096 74.884C167.192 74.896 167.264 74.938 167.312 75.01C167.36 75.07 167.384 75.154 167.384 75.262V76H165.548ZM165.026 62.734L164.828 64.138L163.478 63.85C163.382 63.826 163.31 63.784 163.262 63.724C163.214 63.664 163.19 63.58 163.19 63.472V62.734H165.026Z" fill="white"/>
<path d="M172.681 76.126C171.805 76.126 171.037 75.928 170.377 75.532C169.729 75.136 169.225 74.572 168.865 73.84C168.505 73.108 168.325 72.244 168.325 71.248C168.325 70.396 168.499 69.628 168.847 68.944C169.195 68.26 169.687 67.72 170.323 67.324C170.971 66.928 171.727 66.7299 172.591 66.7299C173.347 66.7299 174.007 66.898 174.571 67.234C175.135 67.57 175.573 68.044 175.885 68.656C176.209 69.256 176.371 69.976 176.371 70.816C176.371 71.068 176.341 71.236 176.281 71.32C176.233 71.404 176.131 71.446 175.975 71.446H169.909C169.909 71.482 169.909 71.524 169.909 71.572C169.909 71.608 169.909 71.644 169.909 71.68C169.969 72.688 170.251 73.474 170.755 74.038C171.259 74.59 171.943 74.866 172.807 74.866C173.179 74.866 173.545 74.794 173.905 74.65C174.277 74.494 174.601 74.344 174.877 74.2C175.165 74.056 175.369 73.984 175.489 73.984C175.621 73.984 175.723 74.032 175.795 74.128L176.245 74.722C176.005 75.034 175.681 75.298 175.273 75.514C174.877 75.718 174.451 75.874 173.995 75.982C173.539 76.078 173.101 76.126 172.681 76.126ZM169.963 70.438H174.931C174.931 69.694 174.727 69.088 174.319 68.62C173.911 68.152 173.347 67.918 172.627 67.918C171.847 67.918 171.235 68.14 170.791 68.584C170.347 69.028 170.071 69.6459 169.963 70.438Z" fill="white"/>
<path d="M180.559 76.144C180.127 76.144 179.641 76.096 179.101 76C178.573 75.904 178.117 75.784 177.733 75.64V74.308L178.525 74.488C178.681 74.596 178.927 74.71 179.263 74.83C179.611 74.938 180.013 74.992 180.469 74.992C181.153 74.992 181.657 74.854 181.981 74.578C182.305 74.29 182.467 73.942 182.467 73.534C182.467 73.174 182.359 72.898 182.143 72.706C181.927 72.514 181.639 72.358 181.279 72.238C180.919 72.118 180.529 71.992 180.109 71.86C179.677 71.716 179.281 71.548 178.921 71.356C178.561 71.164 178.273 70.918 178.057 70.618C177.841 70.306 177.733 69.916 177.733 69.448C177.733 68.908 177.871 68.434 178.147 68.026C178.435 67.618 178.819 67.3 179.299 67.072C179.791 66.844 180.343 66.7299 180.955 66.7299C181.303 66.7299 181.687 66.772 182.107 66.856C182.539 66.94 183.007 67.066 183.511 67.234V68.3139L182.557 68.188C182.305 68.1159 182.047 68.0559 181.783 68.0079C181.531 67.96 181.285 67.936 181.045 67.936C180.697 67.936 180.385 67.99 180.109 68.098C179.845 68.206 179.635 68.356 179.479 68.548C179.323 68.74 179.245 68.962 179.245 69.214C179.245 69.55 179.371 69.82 179.623 70.024C179.887 70.216 180.205 70.372 180.577 70.492C180.949 70.612 181.303 70.726 181.639 70.834C182.035 70.954 182.407 71.11 182.755 71.302C183.115 71.494 183.409 71.746 183.637 72.058C183.865 72.37 183.979 72.778 183.979 73.282C183.979 73.822 183.835 74.308 183.547 74.74C183.271 75.172 182.875 75.514 182.359 75.766C181.855 76.018 181.255 76.144 180.559 76.144ZM182.359 67.936L183.511 68.17V69.574H182.917C182.797 69.574 182.707 69.55 182.647 69.502C182.587 69.442 182.551 69.3699 182.539 69.2859L182.359 67.936ZM178.885 74.902L177.733 74.668V73.264H178.327C178.459 73.264 178.549 73.294 178.597 73.354C178.657 73.402 178.693 73.468 178.705 73.552L178.885 74.902Z" fill="white"/>
<path d="M188.223 76.144C187.791 76.144 187.305 76.096 186.765 76C186.237 75.904 185.781 75.784 185.397 75.64V74.308L186.189 74.488C186.345 74.596 186.591 74.71 186.927 74.83C187.275 74.938 187.677 74.992 188.133 74.992C188.817 74.992 189.321 74.854 189.645 74.578C189.969 74.29 190.131 73.942 190.131 73.534C190.131 73.174 190.023 72.898 189.807 72.706C189.591 72.514 189.303 72.358 188.943 72.238C188.583 72.118 188.193 71.992 187.773 71.86C187.341 71.716 186.945 71.548 186.585 71.356C186.225 71.164 185.937 70.918 185.721 70.618C185.505 70.306 185.397 69.916 185.397 69.448C185.397 68.908 185.535 68.434 185.811 68.026C186.099 67.618 186.483 67.3 186.963 67.072C187.455 66.844 188.007 66.7299 188.619 66.7299C188.967 66.7299 189.351 66.772 189.771 66.856C190.203 66.94 190.671 67.066 191.175 67.234V68.3139L190.221 68.188C189.969 68.1159 189.711 68.0559 189.447 68.0079C189.195 67.96 188.949 67.936 188.709 67.936C188.361 67.936 188.049 67.99 187.773 68.098C187.509 68.206 187.299 68.356 187.143 68.548C186.987 68.74 186.909 68.962 186.909 69.214C186.909 69.55 187.035 69.82 187.287 70.024C187.551 70.216 187.869 70.372 188.241 70.492C188.613 70.612 188.967 70.726 189.303 70.834C189.699 70.954 190.071 71.11 190.419 71.302C190.779 71.494 191.073 71.746 191.301 72.058C191.529 72.37 191.643 72.778 191.643 73.282C191.643 73.822 191.499 74.308 191.211 74.74C190.935 75.172 190.539 75.514 190.023 75.766C189.519 76.018 188.919 76.144 188.223 76.144ZM190.023 67.936L191.175 68.17V69.574H190.581C190.461 69.574 190.371 69.55 190.311 69.502C190.251 69.442 190.215 69.3699 190.203 69.2859L190.023 67.936ZM186.549 74.902L185.397 74.668V73.264H185.991C186.123 73.264 186.213 73.294 186.261 73.354C186.321 73.402 186.357 73.468 186.369 73.552L186.549 74.902Z" fill="white"/>
<path d="M194.231 76.144C193.931 76.144 193.667 76.036 193.439 75.82C193.223 75.592 193.115 75.322 193.115 75.01C193.115 74.698 193.223 74.434 193.439 74.218C193.667 73.99 193.931 73.876 194.231 73.876C194.543 73.876 194.807 73.99 195.023 74.218C195.251 74.434 195.365 74.698 195.365 75.01C195.365 75.322 195.251 75.592 195.023 75.82C194.807 76.036 194.543 76.144 194.231 76.144Z" fill="white"/>
</svg>
