<svg width="54" height="54" viewBox="0 0 54 54" fill="none" xmlns="http://www.w3.org/2000/svg">
<circle cx="27" cy="27" r="27" fill="white"/>
<path d="M27.6871 12.9963C27.3514 12.9715 27.0149 12.9591 26.6782 12.959V11C27.0632 11.0002 27.4481 11.0146 27.8321 11.0431L27.6871 12.9963ZM31.613 13.8778C30.9851 13.6355 30.3401 13.4397 29.6834 13.2921L30.1124 11.3801C30.8627 11.5485 31.6013 11.7719 32.3183 12.05L31.613 13.8778ZM34.2969 15.2687C34.0168 15.0819 33.7299 14.9055 33.4369 14.7398L34.4027 13.0354C35.0725 13.415 35.7135 13.8432 36.3206 14.3166L35.1158 15.8623C34.8502 15.6551 34.577 15.4578 34.2969 15.2707V15.2687ZM37.8898 18.7754C37.5023 18.2249 37.0747 17.7037 36.6105 17.216L38.0289 15.8643C38.5578 16.4226 39.0476 17.0201 39.4923 17.647L37.8898 18.7754ZM39.3473 21.424C39.2187 21.1134 39.0789 20.8076 38.9281 20.5072L40.6775 19.6256C41.0234 20.3134 41.3181 21.0258 41.559 21.7571L39.698 22.3702C39.5927 22.0506 39.4757 21.735 39.3473 21.424ZM40.3856 26.3353C40.3697 25.6621 40.3043 24.9909 40.1897 24.3273L42.1193 23.9943C42.2506 24.7505 42.327 25.5184 42.3466 26.2863L40.3875 26.3353H40.3856ZM40.1289 29.3483C40.1936 29.0153 40.2465 28.6842 40.2876 28.3492L42.2329 28.5902C42.1389 29.3545 41.9882 30.1108 41.7824 30.8528L39.8939 30.3298C39.984 30.0065 40.0623 29.6794 40.1289 29.3483ZM38.2639 34.0089C38.6244 33.4407 38.9418 32.8452 39.216 32.23L41.0066 33.0235C40.6931 33.7287 40.3307 34.4065 39.9193 35.0569L38.2639 34.0089ZM36.3754 36.3695C36.6144 36.1305 36.8436 35.8836 37.0611 35.629L38.546 36.9082C38.2946 37.1998 38.0325 37.4821 37.7605 37.7545L36.3754 36.3695Z" fill="#143458"/>
<path d="M26.6784 12.959C24.4233 12.9592 22.2031 13.5155 20.2143 14.5786C18.2256 15.6418 16.5297 17.179 15.2769 19.0541C14.0241 20.9292 13.2531 23.0843 13.0321 25.3285C12.8112 27.5727 13.1471 29.8368 14.0101 31.9202C14.8731 34.0036 16.2365 35.8421 17.9797 37.2727C19.7229 38.7033 21.792 39.682 24.0038 40.122C26.2155 40.5619 28.5016 40.4497 30.6597 39.7952C32.8177 39.1406 34.7809 37.964 36.3756 36.3695L37.7606 37.7545C35.9382 39.5779 33.6942 40.9237 31.2273 41.6726C28.7605 42.4215 26.147 42.5503 23.6185 42.0477C21.09 41.5451 18.7244 40.4266 16.7315 38.7913C14.7386 37.156 13.1797 35.0543 12.1932 32.6726C11.2066 30.2908 10.8227 27.7025 11.0756 25.1369C11.3284 22.5713 12.2102 20.1077 13.6427 17.9644C15.0753 15.8211 17.0143 14.0641 19.2882 12.8493C21.562 11.6345 24.1004 10.9993 26.6784 11V12.959Z" fill="#143458"/>
<path d="M25.699 16.8772C25.9588 16.8772 26.2079 16.9804 26.3916 17.1641C26.5753 17.3478 26.6785 17.5969 26.6785 17.8567V28.0633L33.0415 31.6992C33.2605 31.8314 33.4191 32.0439 33.4835 32.2914C33.5479 32.539 33.5128 32.8019 33.386 33.0239C33.2591 33.246 33.0503 33.4096 32.8044 33.4799C32.5584 33.5501 32.2948 33.5213 32.0698 33.3997L25.2132 29.4816C25.0632 29.396 24.9386 29.2722 24.8519 29.1229C24.7652 28.9736 24.7195 28.8041 24.7195 28.6314V17.8567C24.7195 17.5969 24.8227 17.3478 25.0064 17.1641C25.1901 16.9804 25.4392 16.8772 25.699 16.8772Z" fill="#143458"/>
</svg>
