<svg width="54" height="54" viewBox="0 0 54 54" fill="none" xmlns="http://www.w3.org/2000/svg">
<circle cx="27" cy="27" r="27" fill="white"/>
<path d="M26.9369 13.0174C26.7045 12.9243 26.4451 12.9243 26.2127 13.0174L14.5939 17.6646L26.5748 22.4558L38.5558 17.6646L26.9369 13.0174ZM40.2028 19.1033L27.5483 24.1651V39.5881L40.2028 34.5263V19.1033ZM25.6014 39.59V24.1632L12.9469 19.1033V34.5282L25.6014 39.59ZM25.4904 11.2088C26.1866 10.9304 26.9631 10.9304 27.6592 11.2088L41.5383 16.7612C41.7188 16.8335 41.8734 16.9582 41.9824 17.1192C42.0914 17.2802 42.1496 17.4702 42.1496 17.6646V34.5282C42.1494 34.9172 42.0326 35.2973 41.8143 35.6193C41.5961 35.9413 41.2863 36.1906 40.9251 36.3349L26.9369 41.9301C26.7045 42.0233 26.4451 42.0233 26.2127 41.9301L12.2265 36.3349C11.8649 36.1909 11.5547 35.9417 11.3361 35.6197C11.1175 35.2976 11.0004 34.9175 11 34.5282V17.6646C11 17.4702 11.0583 17.2802 11.1672 17.1192C11.2762 16.9582 11.4309 16.8335 11.6113 16.7612L25.4904 11.2088Z" fill="#143458"/>
</svg>
