<svg width="12" height="18" viewBox="0 0 12 18" fill="none" xmlns="http://www.w3.org/2000/svg">
<path d="M3.21009 0.403875C3.24437 0.287245 3.31551 0.184859 3.41286 0.11205C3.51021 0.0392414 3.62852 -7.10847e-05 3.75009 9.64931e-08H8.25009C8.33917 6.77179e-05 8.42696 0.0212917 8.50623 0.0619249C8.58551 0.102558 8.654 0.161439 8.70607 0.233719C8.75814 0.305999 8.79229 0.389613 8.80573 0.477676C8.81916 0.565739 8.81149 0.655733 8.78333 0.74025L6.78084 6.75H11.0626C11.1679 6.74993 11.2712 6.77943 11.3606 6.83516C11.4499 6.89089 11.5219 6.9706 11.5682 7.06521C11.6145 7.15982 11.6333 7.26554 11.6225 7.37032C11.6117 7.4751 11.5716 7.57473 11.507 7.65788L3.63196 17.7829C3.55129 17.8871 3.43658 17.9597 3.30785 17.988C3.17912 18.0162 3.04455 17.9984 2.92762 17.9376C2.81069 17.8768 2.71882 17.7769 2.66805 17.6552C2.61728 17.5336 2.61084 17.398 2.64984 17.2721L4.67596 10.6875H0.937585C0.850133 10.6876 0.763873 10.6672 0.685657 10.6281C0.60744 10.589 0.539422 10.5322 0.487003 10.4622C0.434584 10.3922 0.399209 10.3109 0.383687 10.2248C0.368165 10.1388 0.372924 10.0503 0.397585 9.96638L3.21009 0.403875Z" fill="#143458"/>
</svg>
