<svg width="69" height="72" viewBox="0 0 69 72" fill="none" xmlns="http://www.w3.org/2000/svg">
<path d="M58.6724 27.3567H9.95906C6.11568 27.3567 3 30.4724 3 34.3157V62.152C3 65.9954 6.11568 69.111 9.95906 69.111H58.6724C62.5158 69.111 65.6315 65.9954 65.6315 62.152V34.3157C65.6315 30.4724 62.5158 27.3567 58.6724 27.3567Z" stroke="#454545" stroke-width="5" stroke-linecap="round" stroke-linejoin="round"/>
<path d="M13.4386 13.4386C13.4386 10.6701 14.5384 8.015 16.496 6.05739C18.4536 4.09978 21.1087 3 23.8772 3H44.7544C47.5228 3 50.1779 4.09978 52.1355 6.05739C54.0932 8.015 55.1929 10.6701 55.1929 13.4386V27.3567H13.4386V13.4386Z" stroke="#454545" stroke-width="5" stroke-linecap="round" stroke-linejoin="round"/>
</svg>
