<svg xmlns="http://www.w3.org/2000/svg" fill="none" viewBox="27.102040816326532 24.4392 51.22448979591837 51.612" style="max-height: 500px" width="51.22448979591837" height="51.612">
<path fill="#143458" d="M65.8619 54.5873L62.0596 57.4046L60.6612 61.8481L68.2003 61.7456C74.4563 61.674 76.9659 53.7001 71.8785 50.0586L65.757 45.6567L64.3585 50.1002L65.8619 54.5873Z"/>
<path fill="#0AACA4" d="M61.9381 42.8827L65.7665 45.6263L64.3585 50.1002L65.841 54.5473L71.8881 50.0281C76.8776 46.3134 74.2124 38.3833 67.9756 38.394L60.4251 38.426L61.9381 42.8827Z"/>
<path fill="#143458" d="M60.4349 38.3956L61.9383 42.8827L65.7457 45.5862L67.9758 38.394C69.8131 32.4496 62.9963 27.5948 57.9553 31.2598L51.8568 35.7294L55.6948 38.4425L60.4349 38.3956Z" clip-rule="evenodd" fill-rule="evenodd"/>
<path fill="#0AACA4" d="M48.0336 38.5066L51.8359 35.6893L55.6947 38.4425L60.3642 38.4069L57.9248 31.2502C55.9219 25.3683 47.5534 25.444 45.6551 31.3692L43.364 38.5422L48.0336 38.5066Z"/>
<path fill="#143458" d="M43.3238 38.5631L48.0334 38.5066L51.8261 35.7198L45.6245 31.3596C40.5484 27.7885 33.8219 32.7628 35.7542 38.656L38.1536 45.8334L41.9158 43.037L43.3238 38.5631Z"/>
<path fill="#0AACA4" d="M39.6171 50.3414L38.1137 45.8543L41.916 43.037L43.3145 38.5935L35.7448 38.6864C29.5193 38.7675 27.0098 46.7415 32.0666 50.3734L38.2187 54.7849L39.6171 50.3414Z"/>
<path fill="#143458" d="M43.5503 62.0155L42.0373 57.5588L38.209 54.8153L39.617 50.3414L38.1345 45.8943L32.0569 50.4038C27.0978 54.1281 29.7631 62.0582 35.9693 62.038L43.5503 62.0155Z"/>
<path fill="#0AACA4" d="M38.2299 54.8553L35.9998 62.0476C34.1625 67.992 40.9793 72.8468 45.9898 69.1721L52.0883 64.7026L48.2808 61.9991L43.5408 62.0459L42.0373 57.5588L38.2299 54.8553Z"/>
<path fill="#143458" d="M60.6116 61.8993L55.9421 61.935L52.1398 64.7522L48.2809 61.9991L43.5809 62.0251L46.0204 69.1817C48.0537 75.0732 56.4222 74.9976 58.3205 69.0724L60.6116 61.8993Z"/>
<path fill="#0AACA4" d="M65.8219 54.6081L62.0597 57.4046L60.6516 61.8785L55.942 61.935L52.1493 64.7218L58.3205 69.0724C63.427 72.653 70.1536 67.6787 68.1908 61.776L65.8219 54.6081Z"/>
<path fill="#143458" d="M68.2003 61.7456C71.3636 61.7042 73.5517 59.65 74.3066 57.1447L65.8297 54.4768L65.8619 54.5873L62.0596 57.4046L60.6612 61.8481L68.2003 61.7456Z"/>
</svg>