<svg width="559" height="574" viewBox="0 0 559 574" fill="none" xmlns="http://www.w3.org/2000/svg">
<path d="M368.762 306.894L347.313 322.786L339.424 347.852L381.953 347.274C417.242 346.87 431.399 301.889 402.701 281.347L368.169 256.517L360.281 281.582L368.762 306.894Z" fill="black"/>
<path d="M346.628 240.868L368.224 256.345L360.281 281.582L368.644 306.668L402.755 281.176C430.902 260.221 415.867 215.487 380.685 215.548L338.093 215.728L346.628 240.868Z" fill="#494949"/>
<path fill-rule="evenodd" clip-rule="evenodd" d="M338.147 215.557L346.628 240.868L368.105 256.119L380.685 215.548C391.05 182.015 352.596 154.629 324.16 175.304L289.758 200.516L311.408 215.821L338.147 215.557Z" fill="black"/>
<path d="M268.191 216.183L289.64 200.291L311.408 215.821L337.749 215.62L323.988 175.25C312.69 142.07 265.483 142.496 254.774 175.921L241.851 216.384L268.191 216.183Z" fill="#494949"/>
<path d="M241.625 216.501L268.191 216.183L289.586 200.462L254.602 175.866C225.969 155.722 188.024 183.782 198.924 217.025L212.459 257.513L233.682 241.739L241.625 216.501Z" fill="black"/>
<path d="M220.714 282.943L212.233 257.631L233.682 241.739L241.571 216.673L198.87 217.197C163.752 217.655 149.596 262.636 178.121 283.123L212.825 308.008L220.714 282.943Z" fill="#494949"/>
<path d="M242.902 348.797L234.367 323.656L212.771 308.18L220.714 282.943L212.351 257.857L178.067 283.295C150.093 304.304 165.128 349.037 200.137 348.923L242.902 348.797Z" fill="black"/>
<path d="M212.889 308.406L200.31 348.977C189.945 382.51 228.399 409.896 256.663 389.167L291.065 363.954L269.587 348.704L242.848 348.968L234.367 323.656L212.889 308.406Z" fill="#494949"/>
<path d="M339.144 348.141L312.803 348.342L291.355 364.234L269.587 348.704L243.074 348.851L256.835 389.221C268.305 422.455 315.512 422.028 326.22 388.604L339.144 348.141Z" fill="black"/>
<path d="M368.535 307.012L347.313 322.786L339.37 348.024L312.803 348.342L291.408 364.063L326.22 388.604C355.026 408.803 392.97 380.743 381.898 347.445L368.535 307.012Z" fill="#494949"/>
<path d="M381.953 347.274C399.797 347.04 412.14 335.452 416.398 321.32L368.58 306.271L368.762 306.894L347.313 322.786L339.424 347.852L381.953 347.274Z" fill="black"/>
</svg>
