<svg width="55" height="54" viewBox="0 0 55 54" fill="none" xmlns="http://www.w3.org/2000/svg">
<path d="M40.1323 31.0438L36.6347 33.6353L35.3483 37.7227L42.2833 37.6284C48.0378 37.5626 50.3462 30.2277 45.6666 26.8781L40.0357 22.829L38.7493 26.9164L40.1323 31.0438Z" fill="#0AACA4"/>
<path d="M36.5231 20.2773L40.0446 22.801L38.7494 26.9163L40.1131 31.007L45.6755 26.85C50.2652 23.433 47.8136 16.1385 42.0767 16.1483L35.1313 16.1778L36.5231 20.2773Z" fill="#143458"/>
<path fill-rule="evenodd" clip-rule="evenodd" d="M35.14 16.1499L36.5229 20.2773L40.0252 22.7642L42.0765 16.1484C43.7666 10.6804 37.4961 6.2147 32.8592 9.58601L27.2495 13.6973L30.7798 16.193L35.14 16.1499Z" fill="#0AACA4"/>
<path d="M23.7328 16.252L27.2303 13.6605L30.7799 16.193L35.0752 16.1602L32.8312 9.57718C30.9889 4.1667 23.2911 4.23627 21.5449 9.68658L19.4375 16.2847L23.7328 16.252Z" fill="#143458"/>
<path d="M19.4006 16.3039L23.7327 16.2519L27.2214 13.6885L21.5168 9.67774C16.8476 6.39289 10.6602 10.9685 12.4376 16.3893L14.6447 22.9915L18.1054 20.4192L19.4006 16.3039Z" fill="#0AACA4"/>
<path d="M15.9909 27.1382L14.6079 23.0107L18.1055 20.4193L19.3918 16.3319L12.4289 16.4174C6.70238 16.492 4.39393 23.8268 9.04549 27.1677L14.7045 31.2256L15.9909 27.1382Z" fill="#143458"/>
<path d="M19.609 37.8767L18.2173 33.7772L14.6957 31.2535L15.9909 27.1382L14.6272 23.0475L9.03675 27.1956C4.47512 30.6214 6.92673 37.9159 12.6356 37.8973L19.609 37.8767Z" fill="#0AACA4"/>
<path d="M14.7148 31.2903L12.6635 37.9061C10.9734 43.3741 17.2439 47.8398 21.8528 44.4597L27.4625 40.3484L23.9602 37.8615L19.6 37.9046L18.2171 33.7772L14.7148 31.2903Z" fill="#143458"/>
<path d="M35.3027 37.7698L31.0075 37.8025L27.5099 40.394L23.9603 37.8615L19.637 37.8855L21.881 44.4685C23.7513 49.8878 31.4491 49.8182 33.1953 44.3679L35.3027 37.7698Z" fill="#0AACA4"/>
<path d="M40.0954 31.0631L36.6347 33.6354L35.3395 37.7507L31.0074 37.8026L27.5186 40.3661L33.1952 44.368C37.8925 47.6617 44.0799 43.0861 42.2744 37.6564L40.0954 31.0631Z" fill="#143458"/>
<path d="M42.2833 37.6283C45.193 37.5903 47.2057 35.7007 47.9002 33.3962L40.1026 30.9421L40.1323 31.0438L36.6347 33.6353L35.3484 37.7226L42.2833 37.6283Z" fill="#0AACA4"/>
</svg>
