<svg width="54" height="54" viewBox="0 0 54 54" fill="none" xmlns="http://www.w3.org/2000/svg">
<circle cx="27" cy="27" r="27" fill="black"/>
<path d="M33.0698 13.8837C33.5693 13.8837 34.0485 14.0822 34.4017 14.4354C34.755 14.7887 34.9535 15.2678 34.9535 15.7674V38.3721C34.9535 38.8717 34.755 39.3508 34.4017 39.7041C34.0485 40.0573 33.5693 40.2558 33.0698 40.2558H21.7674C21.2678 40.2558 20.7887 40.0573 20.4354 39.7041C20.0822 39.3508 19.8837 38.8717 19.8837 38.3721V15.7674C19.8837 15.2678 20.0822 14.7887 20.4354 14.4354C20.7887 14.0822 21.2678 13.8837 21.7674 13.8837H33.0698ZM21.7674 12C20.7683 12 19.81 12.3969 19.1035 13.1035C18.3969 13.81 18 14.7683 18 15.7674V38.3721C18 39.3713 18.3969 40.3295 19.1035 41.0361C19.81 41.7426 20.7683 42.1395 21.7674 42.1395H33.0698C34.0689 42.1395 35.0272 41.7426 35.7337 41.0361C36.4403 40.3295 36.8372 39.3713 36.8372 38.3721V15.7674C36.8372 14.7683 36.4403 13.81 35.7337 13.1035C35.0272 12.3969 34.0689 12 33.0698 12H21.7674Z" fill="white"/>
<path d="M27.4186 38.3722C27.9182 38.3722 28.3974 38.1737 28.7506 37.8204C29.1039 37.4672 29.3024 36.988 29.3024 36.4885C29.3024 35.9889 29.1039 35.5097 28.7506 35.1565C28.3974 34.8032 27.9182 34.6047 27.4186 34.6047C26.919 34.6047 26.4399 34.8032 26.0866 35.1565C25.7334 35.5097 25.5349 35.9889 25.5349 36.4885C25.5349 36.988 25.7334 37.4672 26.0866 37.8204C26.4399 38.1737 26.919 38.3722 27.4186 38.3722Z" fill="white"/>
</svg>
