<svg width="54" height="54" viewBox="0 0 54 54" fill="none" xmlns="http://www.w3.org/2000/svg">
<circle cx="27" cy="27" r="27" fill="white"/>
<path d="M44.7233 42.1786C44.7233 42.1786 47.2382 42.1786 47.2382 39.6637C47.2382 37.1489 44.7233 29.6042 34.6637 29.6042C24.6042 29.6042 22.0893 37.1489 22.0893 39.6637C22.0893 42.1786 24.6042 42.1786 24.6042 42.1786H44.7233ZM24.6595 39.6637C24.6409 39.6612 24.6225 39.6578 24.6042 39.6537C24.6067 38.9898 25.0242 37.0634 26.5155 35.3281C27.9037 33.7009 30.3432 32.1191 34.6637 32.1191C38.9818 32.1191 41.4212 33.7035 42.812 35.3281C44.3033 37.0634 44.7183 38.9923 44.7233 39.6537L44.7032 39.6587C44.6915 39.6607 44.6797 39.6624 44.668 39.6637H24.6595ZM34.6637 24.5744C35.9977 24.5744 37.2771 24.0445 38.2203 23.1012C39.1636 22.158 39.6935 20.8786 39.6935 19.5447C39.6935 18.2107 39.1636 16.9313 38.2203 15.9881C37.2771 15.0448 35.9977 14.5149 34.6637 14.5149C33.3298 14.5149 32.0504 15.0448 31.1072 15.9881C30.1639 16.9313 29.634 18.2107 29.634 19.5447C29.634 20.8786 30.1639 22.158 31.1072 23.1012C32.0504 24.0445 33.3298 24.5744 34.6637 24.5744ZM42.2084 19.5447C42.2084 20.5354 42.0133 21.5165 41.6341 22.4319C41.2549 23.3472 40.6992 24.1789 39.9986 24.8795C39.298 25.5801 38.4663 26.1359 37.551 26.515C36.6356 26.8942 35.6545 27.0893 34.6637 27.0893C33.673 27.0893 32.6919 26.8942 31.7765 26.515C30.8612 26.1359 30.0294 25.5801 29.3289 24.8795C28.6283 24.1789 28.0725 23.3472 27.6934 22.4319C27.3142 21.5165 27.1191 20.5354 27.1191 19.5447C27.1191 17.5437 27.914 15.6247 29.3289 14.2098C30.7438 12.7949 32.6628 12 34.6637 12C36.6647 12 38.5837 12.7949 39.9986 14.2098C41.4135 15.6247 42.2084 17.5437 42.2084 19.5447ZM24.4432 30.3084C23.4372 29.9916 22.4002 29.7833 21.3499 29.6872C20.7598 29.6311 20.1673 29.6034 19.5744 29.6042C9.51489 29.6042 7 37.1489 7 39.6637C7 41.3412 7.83746 42.1786 9.51489 42.1786H20.1176C19.7448 41.3935 19.5589 40.5327 19.5744 39.6637C19.5744 37.1237 20.5225 34.5283 22.3157 32.3605C22.9268 31.6211 23.6385 30.9295 24.4432 30.3084ZM19.3732 32.1191C17.8848 34.3555 17.0808 36.9774 17.0595 39.6637H9.51489C9.51489 39.0099 9.92733 37.0734 11.4262 35.3281C12.7968 33.7286 15.1784 32.1694 19.3732 32.1216V32.1191ZM10.7723 20.8021C10.7723 18.8011 11.5672 16.8821 12.9821 15.4672C14.397 14.0523 16.316 13.2574 18.317 13.2574C20.318 13.2574 22.237 14.0523 23.6519 15.4672C25.0668 16.8821 25.8616 18.8011 25.8616 20.8021C25.8616 22.8031 25.0668 24.7221 23.6519 26.137C22.237 27.5519 20.318 28.3468 18.317 28.3468C16.316 28.3468 14.397 27.5519 12.9821 26.137C11.5672 24.7221 10.7723 22.8031 10.7723 20.8021ZM18.317 15.7723C16.983 15.7723 15.7037 16.3022 14.7604 17.2455C13.8171 18.1888 13.2872 19.4681 13.2872 20.8021C13.2872 22.1361 13.8171 23.4154 14.7604 24.3587C15.7037 25.302 16.983 25.8319 18.317 25.8319C19.651 25.8319 20.9303 25.302 21.8736 24.3587C22.8168 23.4154 23.3468 22.1361 23.3468 20.8021C23.3468 19.4681 22.8168 18.1888 21.8736 17.2455C20.9303 16.3022 19.651 15.7723 18.317 15.7723Z" fill="#143458"/>
</svg>
