<svg width="45" height="45" viewBox="0 0 45 45" fill="none" xmlns="http://www.w3.org/2000/svg">
<path d="M31.1434 16.628C31.1434 18.833 30.2675 20.9477 28.7083 22.5069C27.1491 24.066 25.0344 24.942 22.8294 24.942C20.6244 24.942 18.5097 24.066 16.9505 22.5069C15.3913 20.9477 14.5154 18.833 14.5154 16.628C14.5154 14.423 15.3913 12.3083 16.9505 10.7491C18.5097 9.1899 20.6244 8.31396 22.8294 8.31396C25.0344 8.31396 27.1491 9.1899 28.7083 10.7491C30.2675 12.3083 31.1434 14.423 31.1434 16.628Z" fill="#FF0000"/>
<path fill-rule="evenodd" clip-rule="evenodd" d="M0.658691 22.1707C0.658691 16.2907 2.99452 10.6515 7.15233 6.49364C11.3101 2.33583 16.9493 0 22.8294 0C28.7094 0 34.3486 2.33583 38.5064 6.49364C42.6642 10.6515 45.0001 16.2907 45.0001 22.1707C45.0001 28.0507 42.6642 33.6899 38.5064 37.8477C34.3486 42.0055 28.7094 44.3414 22.8294 44.3414C16.9493 44.3414 11.3101 42.0055 7.15233 37.8477C2.99452 33.6899 0.658691 28.0507 0.658691 22.1707ZM22.8294 2.77134C19.1761 2.77153 15.5972 3.80328 12.5045 5.74783C9.41178 7.69238 6.93101 10.4707 5.34769 13.763C3.76438 17.0553 3.14288 20.7278 3.55473 24.3577C3.96659 27.9876 5.39505 31.4275 7.67571 34.2814C9.64336 31.111 13.975 27.7134 22.8294 27.7134C31.6838 27.7134 36.0126 31.1082 37.983 34.2814C40.2637 31.4275 41.6922 27.9876 42.104 24.3577C42.5159 20.7278 41.8944 17.0553 40.3111 13.763C38.7277 10.4707 36.247 7.69238 33.1543 5.74783C30.0615 3.80328 26.4826 2.77153 22.8294 2.77134Z" fill="#FF0000"/>
</svg>
