<svg width="45" height="45" viewBox="0 0 45 45" fill="none" xmlns="http://www.w3.org/2000/svg">
<path d="M30.4847 16.628C30.4847 18.833 29.6088 20.9477 28.0496 22.5069C26.4904 24.066 24.3757 24.942 22.1707 24.942C19.9657 24.942 17.851 24.066 16.2918 22.5069C14.7326 20.9477 13.8567 18.833 13.8567 16.628C13.8567 14.423 14.7326 12.3083 16.2918 10.7491C17.851 9.1899 19.9657 8.31396 22.1707 8.31396C24.3757 8.31396 26.4904 9.1899 28.0496 10.7491C29.6088 12.3083 30.4847 14.423 30.4847 16.628Z" fill="black"/>
<path fill-rule="evenodd" clip-rule="evenodd" d="M0 22.1707C0 16.2907 2.33583 10.6515 6.49364 6.49364C10.6515 2.33583 16.2907 0 22.1707 0C28.0507 0 33.6899 2.33583 37.8477 6.49364C42.0055 10.6515 44.3414 16.2907 44.3414 22.1707C44.3414 28.0507 42.0055 33.6899 37.8477 37.8477C33.6899 42.0055 28.0507 44.3414 22.1707 44.3414C16.2907 44.3414 10.6515 42.0055 6.49364 37.8477C2.33583 33.6899 0 28.0507 0 22.1707ZM22.1707 2.77134C18.5174 2.77153 14.9385 3.80328 11.8458 5.74783C8.75309 7.69238 6.27232 10.4707 4.689 13.763C3.10568 17.0553 2.48419 20.7278 2.89604 24.3577C3.30789 27.9876 4.73636 31.4275 7.01702 34.2814C8.98467 31.111 13.3163 27.7134 22.1707 27.7134C31.0251 27.7134 35.3539 31.1082 37.3243 34.2814C39.605 31.4275 41.0335 27.9876 41.4453 24.3577C41.8572 20.7278 41.2357 17.0553 39.6524 13.763C38.069 10.4707 35.5883 7.69238 32.4956 5.74783C29.4029 3.80328 25.8239 2.77153 22.1707 2.77134Z" fill="black"/>
</svg>
