<svg width="22" height="22" viewBox="0 0 22 22" fill="none" xmlns="http://www.w3.org/2000/svg">
<path d="M0 0.6875C0 0.505164 0.0724328 0.330295 0.201364 0.201364C0.330295 0.0724328 0.505164 0 0.6875 0L4.8125 0C4.99484 0 5.1697 0.0724328 5.29864 0.201364C5.42757 0.330295 5.5 0.505164 5.5 0.6875C5.5 0.869836 5.42757 1.0447 5.29864 1.17364C5.1697 1.30257 4.99484 1.375 4.8125 1.375H1.375V4.8125C1.375 4.99484 1.30257 5.1697 1.17364 5.29864C1.0447 5.42757 0.869836 5.5 0.6875 5.5C0.505164 5.5 0.330295 5.42757 0.201364 5.29864C0.0724328 5.1697 0 4.99484 0 4.8125V0.6875ZM16.5 0.6875C16.5 0.505164 16.5724 0.330295 16.7014 0.201364C16.8303 0.0724328 17.0052 0 17.1875 0L21.3125 0C21.4948 0 21.6697 0.0724328 21.7986 0.201364C21.9276 0.330295 22 0.505164 22 0.6875V4.8125C22 4.99484 21.9276 5.1697 21.7986 5.29864C21.6697 5.42757 21.4948 5.5 21.3125 5.5C21.1302 5.5 20.9553 5.42757 20.8264 5.29864C20.6974 5.1697 20.625 4.99484 20.625 4.8125V1.375H17.1875C17.0052 1.375 16.8303 1.30257 16.7014 1.17364C16.5724 1.0447 16.5 0.869836 16.5 0.6875ZM0.6875 16.5C0.869836 16.5 1.0447 16.5724 1.17364 16.7014C1.30257 16.8303 1.375 17.0052 1.375 17.1875V20.625H4.8125C4.99484 20.625 5.1697 20.6974 5.29864 20.8264C5.42757 20.9553 5.5 21.1302 5.5 21.3125C5.5 21.4948 5.42757 21.6697 5.29864 21.7986C5.1697 21.9276 4.99484 22 4.8125 22H0.6875C0.505164 22 0.330295 21.9276 0.201364 21.7986C0.0724328 21.6697 0 21.4948 0 21.3125V17.1875C0 17.0052 0.0724328 16.8303 0.201364 16.7014C0.330295 16.5724 0.505164 16.5 0.6875 16.5ZM21.3125 16.5C21.4948 16.5 21.6697 16.5724 21.7986 16.7014C21.9276 16.8303 22 17.0052 22 17.1875V21.3125C22 21.4948 21.9276 21.6697 21.7986 21.7986C21.6697 21.9276 21.4948 22 21.3125 22H17.1875C17.0052 22 16.8303 21.9276 16.7014 21.7986C16.5724 21.6697 16.5 21.4948 16.5 21.3125C16.5 21.1302 16.5724 20.9553 16.7014 20.8264C16.8303 20.6974 17.0052 20.625 17.1875 20.625H20.625V17.1875C20.625 17.0052 20.6974 16.8303 20.8264 16.7014C20.9553 16.5724 21.1302 16.5 21.3125 16.5ZM5.5 5.5H6.875V6.875H5.5V5.5Z" fill="white"/>
<path d="M9.625 2.75H2.75V9.625H9.625V2.75ZM4.125 4.125H8.25V8.25H4.125V4.125ZM6.875 15.125H5.5V16.5H6.875V15.125Z" fill="white"/>
<path d="M9.625 12.375H2.75V19.25H9.625V12.375ZM4.125 13.75H8.25V17.875H4.125V13.75ZM15.125 5.5H16.5V6.875H15.125V5.5Z" fill="white"/>
<path d="M12.375 2.75H19.25V9.625H12.375V2.75ZM13.75 4.125V8.25H17.875V4.125H13.75ZM11 11V13.75H12.375V15.125H11V16.5H13.75V13.75H15.125V16.5H16.5V15.125H19.25V13.75H15.125V11H11ZM13.75 13.75H12.375V12.375H13.75V13.75ZM19.25 16.5H17.875V17.875H15.125V19.25H19.25V16.5ZM13.75 19.25V17.875H11V19.25H13.75Z" fill="white"/>
<path d="M16.5 12.375H19.25V11H16.5V12.375Z" fill="white"/>
</svg>
