<svg width="46" height="46" viewBox="0 0 46 46" fill="none" xmlns="http://www.w3.org/2000/svg">
<circle cx="23" cy="23" r="23" fill="#143458"/>
<path d="M32.796 22.6972L13.5335 13.0384C13.4552 12.9992 13.3654 12.99 13.2802 13.0108C13.0844 13.0591 12.9624 13.2572 13.0108 13.4552L14.9957 21.5665C15.0257 21.6885 15.1155 21.7875 15.2352 21.8267L18.6364 22.9943L15.2375 24.162C15.1178 24.2034 15.028 24.3001 15.0003 24.4222L13.0108 32.5449C12.99 32.6301 12.9992 32.7199 13.0384 32.7959C13.1282 32.9779 13.3493 33.0516 13.5335 32.9618L32.796 23.3582C32.8674 23.3237 32.9249 23.2638 32.9618 23.1947C33.0516 23.0104 32.9779 22.7894 32.796 22.6972ZM15.2813 30.2373L16.4396 25.5023L23.2373 23.1694C23.2902 23.1509 23.334 23.1095 23.3524 23.0542C23.3846 22.9575 23.334 22.8538 23.2373 22.8193L16.4396 20.4886L15.2859 15.7721L29.7471 23.0243L15.2813 30.2373Z" fill="white"/>
</svg>
