<svg width="54" height="54" viewBox="0 0 54 54" fill="none" xmlns="http://www.w3.org/2000/svg">
<circle cx="27" cy="27" r="27" fill="white"/>
<path d="M19.3571 16.7857V20.3571H15.7857V16.7857H19.3571ZM21.1429 38.2143V34.6429C21.1429 34.1693 20.9547 33.7151 20.6198 33.3802C20.2849 33.0453 19.8307 32.8571 19.3571 32.8571H15.7857C15.3121 32.8571 14.8579 33.0453 14.523 33.3802C14.1881 33.7151 14 34.1693 14 34.6429V38.2143C14 38.6879 14.1881 39.1421 14.523 39.477C14.8579 39.8119 15.3121 40 15.7857 40H19.3571C19.8307 40 20.2849 39.8119 20.6198 39.477C20.9547 39.1421 21.1429 38.6879 21.1429 38.2143ZM21.1429 29.2857V25.7143C21.1429 25.2407 20.9547 24.7865 20.6198 24.4516C20.2849 24.1167 19.8307 23.9286 19.3571 23.9286H15.7857C15.3121 23.9286 14.8579 24.1167 14.523 24.4516C14.1881 24.7865 14 25.2407 14 25.7143V29.2857C14 29.7593 14.1881 30.2135 14.523 30.5484C14.8579 30.8833 15.3121 31.0714 15.7857 31.0714H19.3571C19.8307 31.0714 20.2849 30.8833 20.6198 30.5484C20.9547 30.2135 21.1429 29.7593 21.1429 29.2857ZM21.1429 20.3571V16.7857C21.1429 16.3121 20.9547 15.8579 20.6198 15.523C20.2849 15.1881 19.8307 15 19.3571 15H15.7857C15.3121 15 14.8579 15.1881 14.523 15.523C14.1881 15.8579 14 16.3121 14 16.7857V20.3571C14 20.8307 14.1881 21.2849 14.523 21.6198C14.8579 21.9547 15.3121 22.1429 15.7857 22.1429H19.3571C19.8307 22.1429 20.2849 21.9547 20.6198 21.6198C20.9547 21.2849 21.1429 20.8307 21.1429 20.3571ZM30.0714 38.2143V34.6429C30.0714 34.1693 29.8833 33.7151 29.5484 33.3802C29.2135 33.0453 28.7593 32.8571 28.2857 32.8571H24.7143C24.2407 32.8571 23.7865 33.0453 23.4516 33.3802C23.1167 33.7151 22.9286 34.1693 22.9286 34.6429V38.2143C22.9286 38.6879 23.1167 39.1421 23.4516 39.477C23.7865 39.8119 24.2407 40 24.7143 40H28.2857C28.7593 40 29.2135 39.8119 29.5484 39.477C29.8833 39.1421 30.0714 38.6879 30.0714 38.2143ZM30.0714 29.2857V25.7143C30.0714 25.2407 29.8833 24.7865 29.5484 24.4516C29.2135 24.1167 28.7593 23.9286 28.2857 23.9286H24.7143C24.2407 23.9286 23.7865 24.1167 23.4516 24.4516C23.1167 24.7865 22.9286 25.2407 22.9286 25.7143V29.2857C22.9286 29.7593 23.1167 30.2135 23.4516 30.5484C23.7865 30.8833 24.2407 31.0714 24.7143 31.0714H28.2857C28.7593 31.0714 29.2135 30.8833 29.5484 30.5484C29.8833 30.2135 30.0714 29.7593 30.0714 29.2857ZM30.0714 20.3571V16.7857C30.0714 16.3121 29.8833 15.8579 29.5484 15.523C29.2135 15.1881 28.7593 15 28.2857 15H24.7143C24.2407 15 23.7865 15.1881 23.4516 15.523C23.1167 15.8579 22.9286 16.3121 22.9286 16.7857V20.3571C22.9286 20.8307 23.1167 21.2849 23.4516 21.6198C23.7865 21.9547 24.2407 22.1429 24.7143 22.1429H28.2857C28.7593 22.1429 29.2135 21.9547 29.5484 21.6198C29.8833 21.2849 30.0714 20.8307 30.0714 20.3571ZM28.2857 16.7857V20.3571H24.7143V16.7857H28.2857ZM37.2143 16.7857V20.3571H33.6429V16.7857H37.2143ZM19.3571 25.7143V29.2857H15.7857V25.7143H19.3571ZM28.2857 25.7143V29.2857H24.7143V25.7143H28.2857ZM37.2143 25.7143H33.6429V29.2857H37.2143V25.7143ZM19.3571 34.6429V38.2143H15.7857V34.6429H19.3571ZM28.2857 34.6429V38.2143H24.7143V34.6429H28.2857ZM37.2143 34.6429V38.2143H33.6429V34.6429H37.2143ZM33.6429 15C33.1693 15 32.7151 15.1881 32.3802 15.523C32.0453 15.8579 31.8571 16.3121 31.8571 16.7857V20.3571C31.8571 20.8307 32.0453 21.2849 32.3802 21.6198C32.7151 21.9547 33.1693 22.1429 33.6429 22.1429H37.2143C37.6879 22.1429 38.1421 21.9547 38.477 21.6198C38.8119 21.2849 39 20.8307 39 20.3571V16.7857C39 16.3121 38.8119 15.8579 38.477 15.523C38.1421 15.1881 37.6879 15 37.2143 15H33.6429ZM31.8571 25.7143C31.8571 25.2407 32.0453 24.7865 32.3802 24.4516C32.7151 24.1167 33.1693 23.9286 33.6429 23.9286H37.2143C37.6879 23.9286 38.1421 24.1167 38.477 24.4516C38.8119 24.7865 39 25.2407 39 25.7143V29.2857C39 29.7593 38.8119 30.2135 38.477 30.5484C38.1421 30.8833 37.6879 31.0714 37.2143 31.0714H33.6429C33.1693 31.0714 32.7151 30.8833 32.3802 30.5484C32.0453 30.2135 31.8571 29.7593 31.8571 29.2857V25.7143ZM33.6429 32.8571C33.1693 32.8571 32.7151 33.0453 32.3802 33.3802C32.0453 33.7151 31.8571 34.1693 31.8571 34.6429V38.2143C31.8571 38.6879 32.0453 39.1421 32.3802 39.477C32.7151 39.8119 33.1693 40 33.6429 40H37.2143C37.6879 40 38.1421 39.8119 38.477 39.477C38.8119 39.1421 39 38.6879 39 38.2143V34.6429C39 34.1693 38.8119 33.7151 38.477 33.3802C38.1421 33.0453 37.6879 32.8571 37.2143 32.8571H33.6429Z" fill="#143458"/>
</svg>
