<svg width="74" height="75" viewBox="0 0 74 75" fill="none" xmlns="http://www.w3.org/2000/svg">
<path d="M18.5015 68.4852L39.3786 40.649L67.2149 68.4852" stroke="#454545" stroke-width="5" stroke-linecap="round" stroke-linejoin="round"/>
<path d="M12.3358 20.8261L59.4207 3.21965C60.0876 2.97075 60.8148 2.93237 61.5042 3.10969C62.1936 3.28702 62.812 3.67152 63.276 4.21132L63.9372 4.97682C68.2963 10.0309 70.6944 16.4831 70.6944 23.1573V25.3007C70.6946 26.0099 70.4781 26.7022 70.0738 27.2849C69.6696 27.8676 69.097 28.3128 68.4327 28.5611L21.3338 46.1675L12.3358 20.8261Z" stroke="#454545" stroke-width="5" stroke-linecap="round" stroke-linejoin="round"/>
<path d="M3.40028 34.9808C2.78837 33.2555 2.88095 31.3585 3.65795 29.7009C4.43495 28.0434 5.83378 26.7588 7.55136 26.1254L13.4457 23.9542L20.2099 42.9976L14.5035 45.1271C13.6382 45.4504 12.7172 45.5982 11.7942 45.5619C10.8712 45.5256 9.96469 45.3059 9.12748 44.9157C8.29027 44.5254 7.53913 43.9724 6.91786 43.2888C6.29659 42.6052 5.81762 41.8048 5.50887 40.9343L3.40028 34.9808Z" stroke="#454545" stroke-width="5" stroke-linecap="round" stroke-linejoin="round"/>
<path d="M39.3787 40.649V71.9647" stroke="#454545" stroke-width="5" stroke-linecap="round" stroke-linejoin="round"/>
</svg>
