<svg width="54" height="54" viewBox="0 0 54 54" fill="none" xmlns="http://www.w3.org/2000/svg">
<circle cx="27" cy="27" r="27" fill="white"/>
<path d="M36.2922 24.5688H46.1808C46.3002 24.5688 46.4172 24.6029 46.518 24.667C46.6188 24.7311 46.6992 24.8227 46.7499 24.9309C46.8006 25.039 46.8194 25.1594 46.8041 25.2779C46.7888 25.3964 46.7401 25.5081 46.6636 25.5999L41.7194 31.535C41.6603 31.6058 41.5865 31.6627 41.5031 31.7017C41.4196 31.7408 41.3286 31.7611 41.2365 31.7611C41.1444 31.7611 41.0534 31.7408 40.9699 31.7017C40.8865 31.6627 40.8126 31.6058 40.7536 31.535L35.8094 25.5999C35.7329 25.5081 35.6842 25.3964 35.6689 25.2779C35.6536 25.1594 35.6724 25.039 35.7231 24.9309C35.7737 24.8227 35.8542 24.7311 35.955 24.667C36.0558 24.6029 36.1728 24.5688 36.2922 24.5688ZM8.62849 29.5985H18.517C18.6365 29.5985 18.7535 29.5644 18.8543 29.5003C18.9551 29.4362 19.0355 29.3446 19.0862 29.2365C19.1368 29.1283 19.1556 29.0079 19.1403 28.8894C19.1251 28.7709 19.0763 28.6592 18.9999 28.5674L14.0556 22.6323C13.9966 22.5616 13.9228 22.5046 13.8393 22.4656C13.7559 22.4265 13.6649 22.4062 13.5728 22.4062C13.4806 22.4062 13.3896 22.4265 13.3062 22.4656C13.2227 22.5046 13.1489 22.5616 13.0899 22.6323L8.14563 28.5674C8.06917 28.6592 8.02045 28.7709 8.00517 28.8894C7.98988 29.0079 8.00868 29.1283 8.05934 29.2365C8.11001 29.3446 8.19045 29.4362 8.29124 29.5003C8.39204 29.5644 8.50902 29.5985 8.62849 29.5985Z" fill="#143458"/>
<path fill-rule="evenodd" clip-rule="evenodd" d="M27.4045 14.5093C23.5014 14.5093 20.0107 16.2874 17.7046 19.0814C17.6016 19.2149 17.4728 19.3263 17.326 19.409C17.1791 19.4917 17.017 19.544 16.8495 19.5629C16.682 19.5817 16.5124 19.5666 16.3508 19.5186C16.1892 19.4706 16.0389 19.3906 15.9089 19.2833C15.7788 19.176 15.6717 19.0437 15.5938 18.8942C15.5159 18.7447 15.4689 18.581 15.4555 18.413C15.4422 18.2449 15.4627 18.0759 15.516 17.9159C15.5693 17.756 15.6542 17.6084 15.7656 17.4819C17.607 15.2525 20.0499 13.599 22.8039 12.7179C25.5579 11.8368 28.507 11.7652 31.3005 12.5117C34.094 13.2582 36.6143 14.7914 38.5616 16.9289C40.5089 19.0663 41.8013 21.7181 42.2851 24.5689H39.7274C39.1468 21.7291 37.6033 19.1769 35.3579 17.344C33.1125 15.511 30.303 14.5097 27.4045 14.5093ZM15.0816 29.5986C15.5577 31.924 16.6819 34.0672 18.3245 35.7806C19.967 37.494 22.0608 38.7078 24.3639 39.2817C26.6671 39.8556 29.0856 39.7661 31.34 39.0237C33.5945 38.2813 35.5929 36.9162 37.1044 35.0861C37.2074 34.9527 37.3362 34.8412 37.4831 34.7585C37.6299 34.6758 37.792 34.6235 37.9595 34.6047C38.127 34.5858 38.2966 34.6009 38.4582 34.6489C38.6198 34.6969 38.7701 34.777 38.9002 34.8842C39.0302 34.9915 39.1373 35.1238 39.2152 35.2733C39.2931 35.4229 39.3401 35.5865 39.3535 35.7546C39.3668 35.9226 39.3463 36.0916 39.293 36.2516C39.2397 36.4115 39.1549 36.5591 39.0434 36.6856C37.202 38.915 34.7591 40.5685 32.0051 41.4497C29.2511 42.3308 26.302 42.4023 23.5085 41.6558C20.715 40.9093 18.1948 39.3761 16.2474 37.2386C14.3001 35.1012 13.0077 32.4494 12.5239 29.5986H15.0816Z" fill="#143458"/>
</svg>
