<svg width="23" height="21" viewBox="0 0 23 21" fill="none" xmlns="http://www.w3.org/2000/svg">
<path d="M17.4455 0.0639688C17.7633 -0.0149252 18.095 -0.0209251 18.4154 0.0464246C18.7359 0.113774 19.0367 0.252703 19.295 0.452664C19.5532 0.652626 19.7622 0.908363 19.906 1.20046C20.0499 1.49256 20.1247 1.81334 20.125 2.13845V3.87908H20.8438C21.4156 3.87908 21.9641 4.10456 22.3685 4.50591C22.7728 4.90725 23 5.4516 23 6.01919V18.8599C23 19.4275 22.7728 19.9718 22.3685 20.3732C21.9641 20.7745 21.4156 21 20.8438 21H2.15625C1.58438 21 1.03593 20.7745 0.631551 20.3732C0.227176 19.9718 1.41007e-07 19.4275 1.41007e-07 18.8599V6.01919C-0.000200475 5.46826 0.213673 4.93848 0.597105 4.54011C0.980537 4.14174 1.50399 3.90548 2.0585 3.88051L17.4455 0.0639688ZM7.99537 3.87908H18.6875V2.13845C18.6873 2.03021 18.6622 1.92345 18.6142 1.82625C18.5662 1.72905 18.4966 1.64395 18.4106 1.57741C18.3246 1.51088 18.2244 1.46464 18.1177 1.4422C18.0111 1.41976 17.9006 1.42172 17.7948 1.44791L7.99537 3.87908ZM2.15625 5.30582C1.96563 5.30582 1.78281 5.38098 1.64802 5.51477C1.51323 5.64855 1.4375 5.83 1.4375 6.01919V18.8599C1.4375 19.0491 1.51323 19.2305 1.64802 19.3643C1.78281 19.4981 1.96563 19.5733 2.15625 19.5733H20.8438C21.0344 19.5733 21.2172 19.4981 21.352 19.3643C21.4868 19.2305 21.5625 19.0491 21.5625 18.8599V6.01919C21.5625 5.83 21.4868 5.64855 21.352 5.51477C21.2172 5.38098 21.0344 5.30582 20.8438 5.30582H2.15625Z" fill="white"/>
</svg>
