<svg width="54" height="54" viewBox="0 0 54 54" fill="none" xmlns="http://www.w3.org/2000/svg">
<circle cx="27" cy="27" r="27" fill="white"/>
<path d="M35.9965 14.0813C36.3972 13.981 36.8154 13.9734 37.2195 14.059C37.6235 14.1445 38.0028 14.321 38.3284 14.5751C38.6541 14.8291 38.9176 15.154 39.0989 15.525C39.2803 15.8961 39.3747 16.3036 39.375 16.7166V18.9279H40.2812C41.0023 18.9279 41.6938 19.2143 42.2037 19.7242C42.7136 20.2341 43 20.9256 43 21.6466V37.9591C43 38.6802 42.7136 39.3717 42.2037 39.8816C41.6938 40.3915 41.0023 40.6779 40.2812 40.6779H16.7188C15.9977 40.6779 15.3062 40.3915 14.7963 39.8816C14.2864 39.3717 14 38.6802 14 37.9591V21.6466C13.9997 20.9467 14.2694 20.2737 14.7529 19.7676C15.2363 19.2616 15.8963 18.9614 16.5955 18.9297L35.9965 14.0813ZM24.0811 18.9279H37.5625V16.7166C37.5622 16.5791 37.5306 16.4435 37.4701 16.32C37.4096 16.1965 37.3218 16.0884 37.2134 16.0039C37.1049 15.9194 36.9786 15.8606 36.8441 15.8321C36.7096 15.8036 36.5704 15.8061 36.4369 15.8394L24.0811 18.9279ZM16.7188 20.7404C16.4784 20.7404 16.2479 20.8359 16.0779 21.0058C15.908 21.1758 15.8125 21.4063 15.8125 21.6466V37.9591C15.8125 38.1995 15.908 38.43 16.0779 38.6C16.2479 38.7699 16.4784 38.8654 16.7188 38.8654H40.2812C40.5216 38.8654 40.7521 38.7699 40.9221 38.6C41.092 38.43 41.1875 38.1995 41.1875 37.9591V21.6466C41.1875 21.4063 41.092 21.1758 40.9221 21.0058C40.7521 20.8359 40.5216 20.7404 40.2812 20.7404H16.7188Z" fill="#143458"/>
</svg>
